G04 #@! TF.GenerationSoftware,KiCad,Pcbnew,6.0.0-rc1-unknown-c40e921cb3~144~ubuntu20.04.1*
G04 #@! TF.CreationDate,2021-11-22T05:53:21+02:00*
G04 #@! TF.ProjectId,PSU-NONISOLATED,5053552d-4e4f-44e4-9953-4f4c41544544,rev?*
G04 #@! TF.SameCoordinates,Original*
G04 #@! TF.FileFunction,Copper,L2,Bot*
G04 #@! TF.FilePolarity,Positive*
%FSLAX46Y46*%
G04 Gerber Fmt 4.6, Leading zero omitted, Abs format (unit mm)*
G04 Created by KiCad (PCBNEW 6.0.0-rc1-unknown-c40e921cb3~144~ubuntu20.04.1) date 2021-11-22 05:53:21*
%MOMM*%
%LPD*%
G01*
G04 APERTURE LIST*
G04 #@! TA.AperFunction,ComponentPad*
%ADD10C,1.400000*%
G04 #@! TD*
G04 #@! TA.AperFunction,ComponentPad*
%ADD11O,1.400000X1.400000*%
G04 #@! TD*
G04 #@! TA.AperFunction,ComponentPad*
%ADD12R,1.600000X1.600000*%
G04 #@! TD*
G04 #@! TA.AperFunction,ComponentPad*
%ADD13C,1.600000*%
G04 #@! TD*
G04 #@! TA.AperFunction,ComponentPad*
%ADD14R,3.960000X1.980000*%
G04 #@! TD*
G04 #@! TA.AperFunction,ComponentPad*
%ADD15O,3.960000X1.980000*%
G04 #@! TD*
G04 #@! TA.AperFunction,ViaPad*
%ADD16C,0.800000*%
G04 #@! TD*
G04 #@! TA.AperFunction,Conductor*
%ADD17C,0.300000*%
G04 #@! TD*
G04 APERTURE END LIST*
D10*
X76300000Y-53810000D03*
D11*
X76300000Y-46190000D03*
D12*
X95000000Y-57847349D03*
D13*
X95000000Y-61347349D03*
D14*
X140200000Y-51935000D03*
D15*
X140200000Y-56935000D03*
D13*
X79900000Y-59250000D03*
X84900000Y-60750000D03*
D10*
X76300000Y-56190000D03*
D11*
X76300000Y-63810000D03*
D14*
X67900000Y-57765000D03*
D15*
X67900000Y-52765000D03*
D12*
X101500000Y-48347349D03*
D13*
X101500000Y-51847349D03*
D12*
X129600000Y-53317621D03*
D13*
X129600000Y-55817621D03*
D16*
X105900000Y-51600000D03*
X105600000Y-54400000D03*
X131000000Y-48500000D03*
X90800000Y-59300000D03*
X114000000Y-60900000D03*
D17*
X105600000Y-54400000D02*
X105600000Y-51900000D01*
X105600000Y-51900000D02*
X105900000Y-51600000D01*
G04 #@! TA.AperFunction,Conductor*
G36*
X75154930Y-45528002D02*
G01*
X75201423Y-45581658D01*
X75211527Y-45651932D01*
X75201004Y-45687249D01*
X75162369Y-45770103D01*
X75160044Y-45775090D01*
X75105314Y-45979345D01*
X75086884Y-46190000D01*
X75105314Y-46400655D01*
X75160044Y-46604910D01*
X75249411Y-46796558D01*
X75370699Y-46969776D01*
X75520224Y-47119301D01*
X75693442Y-47240589D01*
X75698420Y-47242910D01*
X75698423Y-47242912D01*
X75880108Y-47327633D01*
X75885090Y-47329956D01*
X75890398Y-47331378D01*
X75890400Y-47331379D01*
X76084030Y-47383262D01*
X76084032Y-47383262D01*
X76089345Y-47384686D01*
X76300000Y-47403116D01*
X76510655Y-47384686D01*
X76515968Y-47383262D01*
X76515970Y-47383262D01*
X76709600Y-47331379D01*
X76709602Y-47331378D01*
X76714910Y-47329956D01*
X76719892Y-47327633D01*
X76901577Y-47242912D01*
X76901580Y-47242910D01*
X76906558Y-47240589D01*
X77079776Y-47119301D01*
X77229301Y-46969776D01*
X77350589Y-46796558D01*
X77439956Y-46604910D01*
X77494686Y-46400655D01*
X77513116Y-46190000D01*
X77494686Y-45979345D01*
X77439956Y-45775090D01*
X77437631Y-45770103D01*
X77398996Y-45687249D01*
X77388335Y-45617058D01*
X77417315Y-45552245D01*
X77476735Y-45513389D01*
X77513191Y-45508000D01*
X86874000Y-45508000D01*
X86942121Y-45528002D01*
X86988614Y-45581658D01*
X87000000Y-45634000D01*
X87000000Y-64366000D01*
X86979998Y-64434121D01*
X86926342Y-64480614D01*
X86874000Y-64492000D01*
X77513191Y-64492000D01*
X77445070Y-64471998D01*
X77398577Y-64418342D01*
X77388473Y-64348068D01*
X77398996Y-64312751D01*
X77437631Y-64229897D01*
X77437633Y-64229892D01*
X77439956Y-64224910D01*
X77494686Y-64020655D01*
X77513116Y-63810000D01*
X77494686Y-63599345D01*
X77439956Y-63395090D01*
X77350589Y-63203442D01*
X77229301Y-63030224D01*
X77079776Y-62880699D01*
X76906558Y-62759411D01*
X76901580Y-62757090D01*
X76901577Y-62757088D01*
X76719892Y-62672367D01*
X76719891Y-62672366D01*
X76714910Y-62670044D01*
X76709602Y-62668622D01*
X76709600Y-62668621D01*
X76515970Y-62616738D01*
X76515968Y-62616738D01*
X76510655Y-62615314D01*
X76300000Y-62596884D01*
X76089345Y-62615314D01*
X76084032Y-62616738D01*
X76084030Y-62616738D01*
X75890400Y-62668621D01*
X75890398Y-62668622D01*
X75885090Y-62670044D01*
X75880109Y-62672366D01*
X75880108Y-62672367D01*
X75698423Y-62757088D01*
X75698420Y-62757090D01*
X75693442Y-62759411D01*
X75520224Y-62880699D01*
X75370699Y-63030224D01*
X75249411Y-63203442D01*
X75160044Y-63395090D01*
X75105314Y-63599345D01*
X75086884Y-63810000D01*
X75105314Y-64020655D01*
X75160044Y-64224910D01*
X75162367Y-64229892D01*
X75162369Y-64229897D01*
X75201004Y-64312751D01*
X75211665Y-64382942D01*
X75182685Y-64447755D01*
X75123265Y-64486611D01*
X75086809Y-64492000D01*
X61634000Y-64492000D01*
X61565879Y-64471998D01*
X61519386Y-64418342D01*
X61508000Y-64366000D01*
X61508000Y-61836062D01*
X84178493Y-61836062D01*
X84187789Y-61848077D01*
X84238994Y-61883931D01*
X84248489Y-61889414D01*
X84445947Y-61981490D01*
X84456239Y-61985236D01*
X84666688Y-62041625D01*
X84677481Y-62043528D01*
X84894525Y-62062517D01*
X84905475Y-62062517D01*
X85122519Y-62043528D01*
X85133312Y-62041625D01*
X85343761Y-61985236D01*
X85354053Y-61981490D01*
X85551511Y-61889414D01*
X85561006Y-61883931D01*
X85613048Y-61847491D01*
X85621424Y-61837012D01*
X85614356Y-61823566D01*
X84912812Y-61122022D01*
X84898868Y-61114408D01*
X84897035Y-61114539D01*
X84890420Y-61118790D01*
X84184923Y-61824287D01*
X84178493Y-61836062D01*
X61508000Y-61836062D01*
X61508000Y-60755475D01*
X83587483Y-60755475D01*
X83606472Y-60972519D01*
X83608375Y-60983312D01*
X83664764Y-61193761D01*
X83668510Y-61204053D01*
X83760586Y-61401511D01*
X83766069Y-61411006D01*
X83802509Y-61463048D01*
X83812988Y-61471424D01*
X83826434Y-61464356D01*
X84527978Y-60762812D01*
X84534356Y-60751132D01*
X85264408Y-60751132D01*
X85264539Y-60752965D01*
X85268790Y-60759580D01*
X85974287Y-61465077D01*
X85986062Y-61471507D01*
X85998077Y-61462211D01*
X86033931Y-61411006D01*
X86039414Y-61401511D01*
X86131490Y-61204053D01*
X86135236Y-61193761D01*
X86191625Y-60983312D01*
X86193528Y-60972519D01*
X86212517Y-60755475D01*
X86212517Y-60744525D01*
X86193528Y-60527481D01*
X86191625Y-60516688D01*
X86135236Y-60306239D01*
X86131490Y-60295947D01*
X86039414Y-60098489D01*
X86033931Y-60088994D01*
X85997491Y-60036952D01*
X85987012Y-60028576D01*
X85973566Y-60035644D01*
X85272022Y-60737188D01*
X85264408Y-60751132D01*
X84534356Y-60751132D01*
X84535592Y-60748868D01*
X84535461Y-60747035D01*
X84531210Y-60740420D01*
X83825713Y-60034923D01*
X83813938Y-60028493D01*
X83801923Y-60037789D01*
X83766069Y-60088994D01*
X83760586Y-60098489D01*
X83668510Y-60295947D01*
X83664764Y-60306239D01*
X83608375Y-60516688D01*
X83606472Y-60527481D01*
X83587483Y-60744525D01*
X83587483Y-60755475D01*
X61508000Y-60755475D01*
X61508000Y-58799669D01*
X65412001Y-58799669D01*
X65412371Y-58806490D01*
X65417895Y-58857352D01*
X65421521Y-58872604D01*
X65466676Y-58993054D01*
X65475214Y-59008649D01*
X65551715Y-59110724D01*
X65564276Y-59123285D01*
X65666351Y-59199786D01*
X65681946Y-59208324D01*
X65802394Y-59253478D01*
X65817649Y-59257105D01*
X65868514Y-59262631D01*
X65875328Y-59263000D01*
X67627885Y-59263000D01*
X67643124Y-59258525D01*
X67644329Y-59257135D01*
X67646000Y-59249452D01*
X67646000Y-59244884D01*
X68154000Y-59244884D01*
X68158475Y-59260123D01*
X68159865Y-59261328D01*
X68167548Y-59262999D01*
X69924669Y-59262999D01*
X69931490Y-59262629D01*
X69982352Y-59257105D01*
X69997604Y-59253479D01*
X70006884Y-59250000D01*
X78586502Y-59250000D01*
X78606457Y-59478087D01*
X78607881Y-59483400D01*
X78607881Y-59483402D01*
X78653194Y-59652509D01*
X78665716Y-59699243D01*
X78668039Y-59704224D01*
X78668039Y-59704225D01*
X78760151Y-59901762D01*
X78760154Y-59901767D01*
X78762477Y-59906749D01*
X78765634Y-59911257D01*
X78890087Y-60088994D01*
X78893802Y-60094300D01*
X79055700Y-60256198D01*
X79060208Y-60259355D01*
X79060211Y-60259357D01*
X79112467Y-60295947D01*
X79243251Y-60387523D01*
X79248233Y-60389846D01*
X79248238Y-60389849D01*
X79445775Y-60481961D01*
X79450757Y-60484284D01*
X79456065Y-60485706D01*
X79456067Y-60485707D01*
X79666598Y-60542119D01*
X79666600Y-60542119D01*
X79671913Y-60543543D01*
X79900000Y-60563498D01*
X80128087Y-60543543D01*
X80133400Y-60542119D01*
X80133402Y-60542119D01*
X80343933Y-60485707D01*
X80343935Y-60485706D01*
X80349243Y-60484284D01*
X80354225Y-60481961D01*
X80551762Y-60389849D01*
X80551767Y-60389846D01*
X80556749Y-60387523D01*
X80687533Y-60295947D01*
X80739789Y-60259357D01*
X80739792Y-60259355D01*
X80744300Y-60256198D01*
X80906198Y-60094300D01*
X80909914Y-60088994D01*
X81034366Y-59911257D01*
X81037523Y-59906749D01*
X81039846Y-59901767D01*
X81039849Y-59901762D01*
X81131961Y-59704225D01*
X81131961Y-59704224D01*
X81134284Y-59699243D01*
X81143999Y-59662988D01*
X84178576Y-59662988D01*
X84185644Y-59676434D01*
X84887188Y-60377978D01*
X84901132Y-60385592D01*
X84902965Y-60385461D01*
X84909580Y-60381210D01*
X85615077Y-59675713D01*
X85621507Y-59663938D01*
X85612211Y-59651923D01*
X85561006Y-59616069D01*
X85551511Y-59610586D01*
X85354053Y-59518510D01*
X85343761Y-59514764D01*
X85133312Y-59458375D01*
X85122519Y-59456472D01*
X84905475Y-59437483D01*
X84894525Y-59437483D01*
X84677481Y-59456472D01*
X84666688Y-59458375D01*
X84456239Y-59514764D01*
X84445947Y-59518510D01*
X84248489Y-59610586D01*
X84238994Y-59616069D01*
X84186952Y-59652509D01*
X84178576Y-59662988D01*
X81143999Y-59662988D01*
X81146807Y-59652509D01*
X81192119Y-59483402D01*
X81192119Y-59483400D01*
X81193543Y-59478087D01*
X81213498Y-59250000D01*
X81193543Y-59021913D01*
X81153536Y-58872606D01*
X81135707Y-58806067D01*
X81135706Y-58806065D01*
X81134284Y-58800757D01*
X81131961Y-58795775D01*
X81039849Y-58598238D01*
X81039846Y-58598233D01*
X81037523Y-58593251D01*
X80906198Y-58405700D01*
X80744300Y-58243802D01*
X80739792Y-58240645D01*
X80739789Y-58240643D01*
X80661611Y-58185902D01*
X80556749Y-58112477D01*
X80551767Y-58110154D01*
X80551762Y-58110151D01*
X80354225Y-58018039D01*
X80354224Y-58018039D01*
X80349243Y-58015716D01*
X80343935Y-58014294D01*
X80343933Y-58014293D01*
X80133402Y-57957881D01*
X80133400Y-57957881D01*
X80128087Y-57956457D01*
X79900000Y-57936502D01*
X79671913Y-57956457D01*
X79666600Y-57957881D01*
X79666598Y-57957881D01*
X79456067Y-58014293D01*
X79456065Y-58014294D01*
X79450757Y-58015716D01*
X79445776Y-58018039D01*
X79445775Y-58018039D01*
X79248238Y-58110151D01*
X79248233Y-58110154D01*
X79243251Y-58112477D01*
X79138389Y-58185902D01*
X79060211Y-58240643D01*
X79060208Y-58240645D01*
X79055700Y-58243802D01*
X78893802Y-58405700D01*
X78762477Y-58593251D01*
X78760154Y-58598233D01*
X78760151Y-58598238D01*
X78668039Y-58795775D01*
X78665716Y-58800757D01*
X78664294Y-58806065D01*
X78664293Y-58806067D01*
X78646464Y-58872606D01*
X78606457Y-59021913D01*
X78586502Y-59250000D01*
X70006884Y-59250000D01*
X70118054Y-59208324D01*
X70133649Y-59199786D01*
X70235724Y-59123285D01*
X70248285Y-59110724D01*
X70324786Y-59008649D01*
X70333324Y-58993054D01*
X70378478Y-58872606D01*
X70382105Y-58857351D01*
X70387631Y-58806486D01*
X70388000Y-58799672D01*
X70388000Y-58037115D01*
X70383525Y-58021876D01*
X70382135Y-58020671D01*
X70374452Y-58019000D01*
X68172115Y-58019000D01*
X68156876Y-58023475D01*
X68155671Y-58024865D01*
X68154000Y-58032548D01*
X68154000Y-59244884D01*
X67646000Y-59244884D01*
X67646000Y-58037115D01*
X67641525Y-58021876D01*
X67640135Y-58020671D01*
X67632452Y-58019000D01*
X65430116Y-58019000D01*
X65414877Y-58023475D01*
X65413672Y-58024865D01*
X65412001Y-58032548D01*
X65412001Y-58799669D01*
X61508000Y-58799669D01*
X61508000Y-57492885D01*
X65412000Y-57492885D01*
X65416475Y-57508124D01*
X65417865Y-57509329D01*
X65425548Y-57511000D01*
X67627885Y-57511000D01*
X67643124Y-57506525D01*
X67644329Y-57505135D01*
X67646000Y-57497452D01*
X67646000Y-57492885D01*
X68154000Y-57492885D01*
X68158475Y-57508124D01*
X68159865Y-57509329D01*
X68167548Y-57511000D01*
X70369884Y-57511000D01*
X70385123Y-57506525D01*
X70386328Y-57505135D01*
X70387999Y-57497452D01*
X70387999Y-56730331D01*
X70387629Y-56723510D01*
X70382105Y-56672648D01*
X70378479Y-56657396D01*
X70333324Y-56536946D01*
X70324786Y-56521351D01*
X70248285Y-56419276D01*
X70235724Y-56406715D01*
X70133649Y-56330214D01*
X70118054Y-56321676D01*
X69997606Y-56276522D01*
X69982351Y-56272895D01*
X69931486Y-56267369D01*
X69924672Y-56267000D01*
X68172115Y-56267000D01*
X68156876Y-56271475D01*
X68155671Y-56272865D01*
X68154000Y-56280548D01*
X68154000Y-57492885D01*
X67646000Y-57492885D01*
X67646000Y-56285116D01*
X67641525Y-56269877D01*
X67640135Y-56268672D01*
X67632452Y-56267001D01*
X65875331Y-56267001D01*
X65868510Y-56267371D01*
X65817648Y-56272895D01*
X65802396Y-56276521D01*
X65681946Y-56321676D01*
X65666351Y-56330214D01*
X65564276Y-56406715D01*
X65551715Y-56419276D01*
X65475214Y-56521351D01*
X65466676Y-56536946D01*
X65421522Y-56657394D01*
X65417895Y-56672649D01*
X65412369Y-56723514D01*
X65412000Y-56730328D01*
X65412000Y-57492885D01*
X61508000Y-57492885D01*
X61508000Y-56190000D01*
X75086884Y-56190000D01*
X75105314Y-56400655D01*
X75160044Y-56604910D01*
X75162366Y-56609891D01*
X75162367Y-56609892D01*
X75184519Y-56657396D01*
X75249411Y-56796558D01*
X75370699Y-56969776D01*
X75520224Y-57119301D01*
X75693442Y-57240589D01*
X75698420Y-57242910D01*
X75698423Y-57242912D01*
X75880108Y-57327633D01*
X75885090Y-57329956D01*
X75890398Y-57331378D01*
X75890400Y-57331379D01*
X76084030Y-57383262D01*
X76084032Y-57383262D01*
X76089345Y-57384686D01*
X76300000Y-57403116D01*
X76510655Y-57384686D01*
X76515968Y-57383262D01*
X76515970Y-57383262D01*
X76709600Y-57331379D01*
X76709602Y-57331378D01*
X76714910Y-57329956D01*
X76719892Y-57327633D01*
X76901577Y-57242912D01*
X76901580Y-57242910D01*
X76906558Y-57240589D01*
X77079776Y-57119301D01*
X77229301Y-56969776D01*
X77350589Y-56796558D01*
X77415482Y-56657396D01*
X77437633Y-56609892D01*
X77437634Y-56609891D01*
X77439956Y-56604910D01*
X77494686Y-56400655D01*
X77513116Y-56190000D01*
X77494686Y-55979345D01*
X77439956Y-55775090D01*
X77350589Y-55583442D01*
X77229301Y-55410224D01*
X77079776Y-55260699D01*
X76906558Y-55139411D01*
X76901580Y-55137090D01*
X76901577Y-55137088D01*
X76852482Y-55114195D01*
X76799197Y-55067278D01*
X76779736Y-54999001D01*
X76800278Y-54931041D01*
X76852482Y-54885805D01*
X76901577Y-54862912D01*
X76901580Y-54862910D01*
X76906558Y-54860589D01*
X77079776Y-54739301D01*
X77229301Y-54589776D01*
X77350589Y-54416558D01*
X77428982Y-54248445D01*
X77437633Y-54229892D01*
X77437634Y-54229891D01*
X77439956Y-54224910D01*
X77452651Y-54177534D01*
X77493262Y-54025970D01*
X77493262Y-54025968D01*
X77494686Y-54020655D01*
X77513116Y-53810000D01*
X77494686Y-53599345D01*
X77439956Y-53395090D01*
X77437633Y-53390108D01*
X77352912Y-53208423D01*
X77352910Y-53208420D01*
X77350589Y-53203442D01*
X77229301Y-53030224D01*
X77079776Y-52880699D01*
X76906558Y-52759411D01*
X76901580Y-52757090D01*
X76901577Y-52757088D01*
X76719892Y-52672367D01*
X76719891Y-52672366D01*
X76714910Y-52670044D01*
X76709602Y-52668622D01*
X76709600Y-52668621D01*
X76515970Y-52616738D01*
X76515968Y-52616738D01*
X76510655Y-52615314D01*
X76300000Y-52596884D01*
X76089345Y-52615314D01*
X76084032Y-52616738D01*
X76084030Y-52616738D01*
X75890400Y-52668621D01*
X75890398Y-52668622D01*
X75885090Y-52670044D01*
X75880109Y-52672366D01*
X75880108Y-52672367D01*
X75698423Y-52757088D01*
X75698420Y-52757090D01*
X75693442Y-52759411D01*
X75520224Y-52880699D01*
X75370699Y-53030224D01*
X75249411Y-53203442D01*
X75247090Y-53208420D01*
X75247088Y-53208423D01*
X75162367Y-53390108D01*
X75160044Y-53395090D01*
X75105314Y-53599345D01*
X75086884Y-53810000D01*
X75105314Y-54020655D01*
X75106738Y-54025968D01*
X75106738Y-54025970D01*
X75147350Y-54177534D01*
X75160044Y-54224910D01*
X75162366Y-54229891D01*
X75162367Y-54229892D01*
X75171019Y-54248445D01*
X75249411Y-54416558D01*
X75370699Y-54589776D01*
X75520224Y-54739301D01*
X75693442Y-54860589D01*
X75698420Y-54862910D01*
X75698423Y-54862912D01*
X75747518Y-54885805D01*
X75800803Y-54932722D01*
X75820264Y-55000999D01*
X75799722Y-55068959D01*
X75747518Y-55114195D01*
X75698423Y-55137088D01*
X75698420Y-55137090D01*
X75693442Y-55139411D01*
X75520224Y-55260699D01*
X75370699Y-55410224D01*
X75249411Y-55583442D01*
X75160044Y-55775090D01*
X75105314Y-55979345D01*
X75086884Y-56190000D01*
X61508000Y-56190000D01*
X61508000Y-52869888D01*
X65410027Y-52869888D01*
X65447299Y-53113464D01*
X65523853Y-53347682D01*
X65526241Y-53352270D01*
X65526243Y-53352274D01*
X65548532Y-53395090D01*
X65637633Y-53566252D01*
X65640736Y-53570385D01*
X65640738Y-53570388D01*
X65782479Y-53759168D01*
X65785584Y-53763303D01*
X65963731Y-53933545D01*
X65968003Y-53936459D01*
X65968004Y-53936460D01*
X66163011Y-54069485D01*
X66163016Y-54069488D01*
X66167291Y-54072404D01*
X66171980Y-54074580D01*
X66171986Y-54074584D01*
X66386106Y-54173975D01*
X66386111Y-54173977D01*
X66390797Y-54176152D01*
X66395775Y-54177532D01*
X66395779Y-54177534D01*
X66584579Y-54229892D01*
X66628247Y-54242002D01*
X66734864Y-54253396D01*
X66826071Y-54263144D01*
X66826079Y-54263144D01*
X66829406Y-54263500D01*
X68952469Y-54263500D01*
X68955042Y-54263288D01*
X68955053Y-54263288D01*
X69130432Y-54248869D01*
X69130438Y-54248868D01*
X69135583Y-54248445D01*
X69255077Y-54218430D01*
X69369559Y-54189675D01*
X69369563Y-54189674D01*
X69374570Y-54188416D01*
X69379303Y-54186358D01*
X69379306Y-54186357D01*
X69595807Y-54092220D01*
X69595810Y-54092218D01*
X69600544Y-54090160D01*
X69604878Y-54087356D01*
X69604882Y-54087354D01*
X69803092Y-53959126D01*
X69803098Y-53959121D01*
X69807436Y-53956315D01*
X69829257Y-53936460D01*
X69974251Y-53804525D01*
X69989690Y-53790477D01*
X69992889Y-53786426D01*
X69992893Y-53786422D01*
X70139205Y-53601157D01*
X70142410Y-53597099D01*
X70261497Y-53381375D01*
X70343750Y-53149097D01*
X70386963Y-52906505D01*
X70389973Y-52660112D01*
X70352701Y-52416536D01*
X70276147Y-52182318D01*
X70162367Y-51963748D01*
X70139207Y-51932901D01*
X70017521Y-51770832D01*
X70017519Y-51770830D01*
X70014416Y-51766697D01*
X69836269Y-51596455D01*
X69807994Y-51577167D01*
X69636989Y-51460515D01*
X69636984Y-51460512D01*
X69632709Y-51457596D01*
X69628020Y-51455420D01*
X69628014Y-51455416D01*
X69413894Y-51356025D01*
X69413889Y-51356023D01*
X69409203Y-51353848D01*
X69404225Y-51352468D01*
X69404221Y-51352466D01*
X69176726Y-51289377D01*
X69176725Y-51289377D01*
X69171753Y-51287998D01*
X69065136Y-51276604D01*
X68973929Y-51266856D01*
X68973921Y-51266856D01*
X68970594Y-51266500D01*
X66847531Y-51266500D01*
X66844958Y-51266712D01*
X66844947Y-51266712D01*
X66669568Y-51281131D01*
X66669562Y-51281132D01*
X66664417Y-51281555D01*
X66544924Y-51311569D01*
X66430441Y-51340325D01*
X66430437Y-51340326D01*
X66425430Y-51341584D01*
X66420697Y-51343642D01*
X66420694Y-51343643D01*
X66204193Y-51437780D01*
X66204190Y-51437782D01*
X66199456Y-51439840D01*
X66195122Y-51442644D01*
X66195118Y-51442646D01*
X65996908Y-51570874D01*
X65996902Y-51570879D01*
X65992564Y-51573685D01*
X65988739Y-51577165D01*
X65988737Y-51577167D01*
X65934598Y-51626430D01*
X65810310Y-51739523D01*
X65807111Y-51743574D01*
X65807107Y-51743578D01*
X65698861Y-51880643D01*
X65657590Y-51932901D01*
X65538503Y-52148625D01*
X65456250Y-52380903D01*
X65455343Y-52385995D01*
X65414241Y-52616738D01*
X65413037Y-52623495D01*
X65410027Y-52869888D01*
X61508000Y-52869888D01*
X61508000Y-45634000D01*
X61528002Y-45565879D01*
X61581658Y-45519386D01*
X61634000Y-45508000D01*
X75086809Y-45508000D01*
X75154930Y-45528002D01*
G37*
G04 #@! TD.AperFunction*
G04 #@! TA.AperFunction,Conductor*
G36*
X146434121Y-45528002D02*
G01*
X146480614Y-45581658D01*
X146492000Y-45634000D01*
X146492000Y-64366000D01*
X146471998Y-64434121D01*
X146418342Y-64480614D01*
X146366000Y-64492000D01*
X88126000Y-64492000D01*
X88057879Y-64471998D01*
X88011386Y-64418342D01*
X88000000Y-64366000D01*
X88000000Y-62433411D01*
X94278493Y-62433411D01*
X94287789Y-62445426D01*
X94338994Y-62481280D01*
X94348489Y-62486763D01*
X94545947Y-62578839D01*
X94556239Y-62582585D01*
X94766688Y-62638974D01*
X94777481Y-62640877D01*
X94994525Y-62659866D01*
X95005475Y-62659866D01*
X95222519Y-62640877D01*
X95233312Y-62638974D01*
X95443761Y-62582585D01*
X95454053Y-62578839D01*
X95651511Y-62486763D01*
X95661006Y-62481280D01*
X95713048Y-62444840D01*
X95721424Y-62434361D01*
X95714356Y-62420915D01*
X95012812Y-61719371D01*
X94998868Y-61711757D01*
X94997035Y-61711888D01*
X94990420Y-61716139D01*
X94284923Y-62421636D01*
X94278493Y-62433411D01*
X88000000Y-62433411D01*
X88000000Y-61352824D01*
X93687483Y-61352824D01*
X93706472Y-61569868D01*
X93708375Y-61580661D01*
X93764764Y-61791110D01*
X93768510Y-61801402D01*
X93860586Y-61998860D01*
X93866069Y-62008355D01*
X93902509Y-62060397D01*
X93912988Y-62068773D01*
X93926434Y-62061705D01*
X94627978Y-61360161D01*
X94634356Y-61348481D01*
X95364408Y-61348481D01*
X95364539Y-61350314D01*
X95368790Y-61356929D01*
X96074287Y-62062426D01*
X96086062Y-62068856D01*
X96098077Y-62059560D01*
X96133931Y-62008355D01*
X96139414Y-61998860D01*
X96231490Y-61801402D01*
X96235236Y-61791110D01*
X96291625Y-61580661D01*
X96293528Y-61569868D01*
X96312517Y-61352824D01*
X96312517Y-61341874D01*
X96293528Y-61124830D01*
X96291625Y-61114037D01*
X96235236Y-60903588D01*
X96231490Y-60893296D01*
X96139414Y-60695838D01*
X96133931Y-60686343D01*
X96097491Y-60634301D01*
X96087012Y-60625925D01*
X96073566Y-60632993D01*
X95372022Y-61334537D01*
X95364408Y-61348481D01*
X94634356Y-61348481D01*
X94635592Y-61346217D01*
X94635461Y-61344384D01*
X94631210Y-61337769D01*
X93925713Y-60632272D01*
X93913938Y-60625842D01*
X93901923Y-60635138D01*
X93866069Y-60686343D01*
X93860586Y-60695838D01*
X93768510Y-60893296D01*
X93764764Y-60903588D01*
X93708375Y-61114037D01*
X93706472Y-61124830D01*
X93687483Y-61341874D01*
X93687483Y-61352824D01*
X88000000Y-61352824D01*
X88000000Y-60260337D01*
X94278576Y-60260337D01*
X94285644Y-60273783D01*
X94987188Y-60975327D01*
X95001132Y-60982941D01*
X95002965Y-60982810D01*
X95009580Y-60978559D01*
X95715077Y-60273062D01*
X95721507Y-60261287D01*
X95712211Y-60249272D01*
X95661006Y-60213418D01*
X95651511Y-60207935D01*
X95454053Y-60115859D01*
X95443761Y-60112113D01*
X95233312Y-60055724D01*
X95222519Y-60053821D01*
X95005475Y-60034832D01*
X94994525Y-60034832D01*
X94777481Y-60053821D01*
X94766688Y-60055724D01*
X94556239Y-60112113D01*
X94545947Y-60115859D01*
X94348489Y-60207935D01*
X94338994Y-60213418D01*
X94286952Y-60249858D01*
X94278576Y-60260337D01*
X88000000Y-60260337D01*
X88000000Y-58695483D01*
X93691500Y-58695483D01*
X93698255Y-58757665D01*
X93749385Y-58894054D01*
X93836739Y-59010610D01*
X93953295Y-59097964D01*
X94089684Y-59149094D01*
X94151866Y-59155849D01*
X95848134Y-59155849D01*
X95910316Y-59149094D01*
X96046705Y-59097964D01*
X96163261Y-59010610D01*
X96250615Y-58894054D01*
X96301745Y-58757665D01*
X96308500Y-58695483D01*
X96308500Y-57207194D01*
X137736135Y-57207194D01*
X137747006Y-57278236D01*
X137749395Y-57288263D01*
X137822709Y-57512570D01*
X137826706Y-57522079D01*
X137935669Y-57731395D01*
X137941163Y-57740120D01*
X138082854Y-57928835D01*
X138089697Y-57936542D01*
X138260310Y-58099584D01*
X138268316Y-58106067D01*
X138463274Y-58239057D01*
X138472226Y-58244143D01*
X138686285Y-58343506D01*
X138695945Y-58347060D01*
X138923369Y-58410130D01*
X138933473Y-58412057D01*
X139126102Y-58432644D01*
X139132794Y-58433000D01*
X139927885Y-58433000D01*
X139943124Y-58428525D01*
X139944329Y-58427135D01*
X139946000Y-58419452D01*
X139946000Y-58414885D01*
X140454000Y-58414885D01*
X140458475Y-58430124D01*
X140459865Y-58431329D01*
X140467548Y-58433000D01*
X141249857Y-58433000D01*
X141255030Y-58432788D01*
X141430350Y-58418374D01*
X141440512Y-58416691D01*
X141669396Y-58359200D01*
X141679151Y-58355879D01*
X141895557Y-58261782D01*
X141904655Y-58256904D01*
X142102787Y-58128727D01*
X142110956Y-58122437D01*
X142285501Y-57963613D01*
X142292526Y-57956080D01*
X142438787Y-57770880D01*
X142444492Y-57762293D01*
X142558536Y-57555703D01*
X142562766Y-57546291D01*
X142641539Y-57323844D01*
X142644173Y-57313873D01*
X142663239Y-57206837D01*
X142661779Y-57193540D01*
X142647222Y-57189000D01*
X140472115Y-57189000D01*
X140456876Y-57193475D01*
X140455671Y-57194865D01*
X140454000Y-57202548D01*
X140454000Y-58414885D01*
X139946000Y-58414885D01*
X139946000Y-57207115D01*
X139941525Y-57191876D01*
X139940135Y-57190671D01*
X139932452Y-57189000D01*
X137751466Y-57189000D01*
X137738122Y-57192918D01*
X137736135Y-57207194D01*
X96308500Y-57207194D01*
X96308500Y-56999215D01*
X96301745Y-56937033D01*
X96289243Y-56903683D01*
X128878493Y-56903683D01*
X128887789Y-56915698D01*
X128938994Y-56951552D01*
X128948489Y-56957035D01*
X129145947Y-57049111D01*
X129156239Y-57052857D01*
X129366688Y-57109246D01*
X129377481Y-57111149D01*
X129594525Y-57130138D01*
X129605475Y-57130138D01*
X129822519Y-57111149D01*
X129833312Y-57109246D01*
X130043761Y-57052857D01*
X130054053Y-57049111D01*
X130251511Y-56957035D01*
X130261006Y-56951552D01*
X130313048Y-56915112D01*
X130321424Y-56904633D01*
X130314356Y-56891187D01*
X130086332Y-56663163D01*
X137736761Y-56663163D01*
X137738221Y-56676460D01*
X137752778Y-56681000D01*
X139927885Y-56681000D01*
X139943124Y-56676525D01*
X139944329Y-56675135D01*
X139946000Y-56667452D01*
X139946000Y-56662885D01*
X140454000Y-56662885D01*
X140458475Y-56678124D01*
X140459865Y-56679329D01*
X140467548Y-56681000D01*
X142648534Y-56681000D01*
X142661878Y-56677082D01*
X142663865Y-56662806D01*
X142652994Y-56591764D01*
X142650605Y-56581737D01*
X142577291Y-56357430D01*
X142573294Y-56347921D01*
X142464331Y-56138605D01*
X142458837Y-56129880D01*
X142317146Y-55941165D01*
X142310303Y-55933458D01*
X142139690Y-55770416D01*
X142131684Y-55763933D01*
X141936726Y-55630943D01*
X141927774Y-55625857D01*
X141713715Y-55526494D01*
X141704055Y-55522940D01*
X141476631Y-55459870D01*
X141466527Y-55457943D01*
X141273898Y-55437356D01*
X141267206Y-55437000D01*
X140472115Y-55437000D01*
X140456876Y-55441475D01*
X140455671Y-55442865D01*
X140454000Y-55450548D01*
X140454000Y-56662885D01*
X139946000Y-56662885D01*
X139946000Y-55455115D01*
X139941525Y-55439876D01*
X139940135Y-55438671D01*
X139932452Y-55437000D01*
X139150143Y-55437000D01*
X139144970Y-55437212D01*
X138969650Y-55451626D01*
X138959488Y-55453309D01*
X138730604Y-55510800D01*
X138720849Y-55514121D01*
X138504443Y-55608218D01*
X138495345Y-55613096D01*
X138297213Y-55741273D01*
X138289044Y-55747563D01*
X138114499Y-55906387D01*
X138107474Y-55913920D01*
X137961213Y-56099120D01*
X137955508Y-56107707D01*
X137841464Y-56314297D01*
X137837234Y-56323709D01*
X137758461Y-56546156D01*
X137755827Y-56556127D01*
X137736761Y-56663163D01*
X130086332Y-56663163D01*
X129612812Y-56189643D01*
X129598868Y-56182029D01*
X129597035Y-56182160D01*
X129590420Y-56186411D01*
X128884923Y-56891908D01*
X128878493Y-56903683D01*
X96289243Y-56903683D01*
X96250615Y-56800644D01*
X96163261Y-56684088D01*
X96046705Y-56596734D01*
X95910316Y-56545604D01*
X95848134Y-56538849D01*
X94151866Y-56538849D01*
X94089684Y-56545604D01*
X93953295Y-56596734D01*
X93836739Y-56684088D01*
X93749385Y-56800644D01*
X93698255Y-56937033D01*
X93691500Y-56999215D01*
X93691500Y-58695483D01*
X88000000Y-58695483D01*
X88000000Y-55823096D01*
X128287483Y-55823096D01*
X128306472Y-56040140D01*
X128308375Y-56050933D01*
X128364764Y-56261382D01*
X128368510Y-56271674D01*
X128460586Y-56469132D01*
X128466069Y-56478627D01*
X128502509Y-56530669D01*
X128512988Y-56539045D01*
X128526434Y-56531977D01*
X129227978Y-55830433D01*
X129234356Y-55818753D01*
X129964408Y-55818753D01*
X129964539Y-55820586D01*
X129968790Y-55827201D01*
X130674287Y-56532698D01*
X130686062Y-56539128D01*
X130698077Y-56529832D01*
X130733931Y-56478627D01*
X130739414Y-56469132D01*
X130831490Y-56271674D01*
X130835236Y-56261382D01*
X130891625Y-56050933D01*
X130893528Y-56040140D01*
X130912517Y-55823096D01*
X130912517Y-55812146D01*
X130893528Y-55595102D01*
X130891625Y-55584309D01*
X130835236Y-55373860D01*
X130831490Y-55363568D01*
X130739414Y-55166110D01*
X130733931Y-55156615D01*
X130697491Y-55104573D01*
X130687012Y-55096197D01*
X130673566Y-55103265D01*
X129972022Y-55804809D01*
X129964408Y-55818753D01*
X129234356Y-55818753D01*
X129235592Y-55816489D01*
X129235461Y-55814656D01*
X129231210Y-55808041D01*
X128525713Y-55102544D01*
X128513938Y-55096114D01*
X128501923Y-55105410D01*
X128466069Y-55156615D01*
X128460586Y-55166110D01*
X128368510Y-55363568D01*
X128364764Y-55373860D01*
X128308375Y-55584309D01*
X128306472Y-55595102D01*
X128287483Y-55812146D01*
X128287483Y-55823096D01*
X88000000Y-55823096D01*
X88000000Y-54400000D01*
X104686496Y-54400000D01*
X104706458Y-54589928D01*
X104765473Y-54771556D01*
X104860960Y-54936944D01*
X104988747Y-55078866D01*
X105024130Y-55104573D01*
X105108828Y-55166110D01*
X105143248Y-55191118D01*
X105149276Y-55193802D01*
X105149278Y-55193803D01*
X105311681Y-55266109D01*
X105317712Y-55268794D01*
X105411113Y-55288647D01*
X105498056Y-55307128D01*
X105498061Y-55307128D01*
X105504513Y-55308500D01*
X105695487Y-55308500D01*
X105701939Y-55307128D01*
X105701944Y-55307128D01*
X105788887Y-55288647D01*
X105882288Y-55268794D01*
X105888319Y-55266109D01*
X106050722Y-55193803D01*
X106050724Y-55193802D01*
X106056752Y-55191118D01*
X106091173Y-55166110D01*
X106175870Y-55104573D01*
X106211253Y-55078866D01*
X106339040Y-54936944D01*
X106434527Y-54771556D01*
X106493542Y-54589928D01*
X106513504Y-54400000D01*
X106508871Y-54355918D01*
X106494232Y-54216635D01*
X106494232Y-54216633D01*
X106493542Y-54210072D01*
X106479142Y-54165755D01*
X128291500Y-54165755D01*
X128298255Y-54227937D01*
X128349385Y-54364326D01*
X128436739Y-54480882D01*
X128553295Y-54568236D01*
X128689684Y-54619366D01*
X128733252Y-54624099D01*
X128748486Y-54625754D01*
X128748489Y-54625754D01*
X128751866Y-54626121D01*
X128755185Y-54626121D01*
X128822110Y-54649774D01*
X128857804Y-54695777D01*
X128859734Y-54694762D01*
X128865442Y-54705621D01*
X128865632Y-54705866D01*
X128865653Y-54706024D01*
X128885644Y-54744055D01*
X129587188Y-55445599D01*
X129601132Y-55453213D01*
X129602965Y-55453082D01*
X129609580Y-55448831D01*
X130315077Y-54743334D01*
X130337871Y-54701592D01*
X130340047Y-54691592D01*
X130390253Y-54641394D01*
X130443814Y-54626170D01*
X130444719Y-54626121D01*
X130448134Y-54626121D01*
X130451530Y-54625752D01*
X130451532Y-54625752D01*
X130463879Y-54624411D01*
X130510316Y-54619366D01*
X130646705Y-54568236D01*
X130763261Y-54480882D01*
X130850615Y-54364326D01*
X130901745Y-54227937D01*
X130908500Y-54165755D01*
X130908500Y-52973134D01*
X137711500Y-52973134D01*
X137718255Y-53035316D01*
X137769385Y-53171705D01*
X137856739Y-53288261D01*
X137973295Y-53375615D01*
X138109684Y-53426745D01*
X138171866Y-53433500D01*
X142228134Y-53433500D01*
X142290316Y-53426745D01*
X142426705Y-53375615D01*
X142543261Y-53288261D01*
X142630615Y-53171705D01*
X142681745Y-53035316D01*
X142688500Y-52973134D01*
X142688500Y-50896866D01*
X142681745Y-50834684D01*
X142630615Y-50698295D01*
X142543261Y-50581739D01*
X142426705Y-50494385D01*
X142290316Y-50443255D01*
X142228134Y-50436500D01*
X138171866Y-50436500D01*
X138109684Y-50443255D01*
X137973295Y-50494385D01*
X137856739Y-50581739D01*
X137769385Y-50698295D01*
X137718255Y-50834684D01*
X137711500Y-50896866D01*
X137711500Y-52973134D01*
X130908500Y-52973134D01*
X130908500Y-52469487D01*
X130901745Y-52407305D01*
X130850615Y-52270916D01*
X130763261Y-52154360D01*
X130646705Y-52067006D01*
X130510316Y-52015876D01*
X130448134Y-52009121D01*
X128751866Y-52009121D01*
X128689684Y-52015876D01*
X128553295Y-52067006D01*
X128436739Y-52154360D01*
X128349385Y-52270916D01*
X128298255Y-52407305D01*
X128291500Y-52469487D01*
X128291500Y-54165755D01*
X106479142Y-54165755D01*
X106434527Y-54028444D01*
X106339040Y-53863056D01*
X106290864Y-53809551D01*
X106260146Y-53745544D01*
X106258500Y-53725241D01*
X106258500Y-52516688D01*
X106278502Y-52448567D01*
X106333251Y-52401582D01*
X106350715Y-52393806D01*
X106350716Y-52393805D01*
X106356752Y-52391118D01*
X106511253Y-52278866D01*
X106524882Y-52263730D01*
X106634621Y-52141852D01*
X106634622Y-52141851D01*
X106639040Y-52136944D01*
X106734527Y-51971556D01*
X106793542Y-51789928D01*
X106796641Y-51760448D01*
X106812814Y-51606565D01*
X106813504Y-51600000D01*
X106800740Y-51478559D01*
X106794232Y-51416635D01*
X106794232Y-51416633D01*
X106793542Y-51410072D01*
X106734527Y-51228444D01*
X106639040Y-51063056D01*
X106511253Y-50921134D01*
X106392265Y-50834684D01*
X106362094Y-50812763D01*
X106362093Y-50812762D01*
X106356752Y-50808882D01*
X106350724Y-50806198D01*
X106350722Y-50806197D01*
X106188319Y-50733891D01*
X106188318Y-50733891D01*
X106182288Y-50731206D01*
X106088887Y-50711353D01*
X106001944Y-50692872D01*
X106001939Y-50692872D01*
X105995487Y-50691500D01*
X105804513Y-50691500D01*
X105798061Y-50692872D01*
X105798056Y-50692872D01*
X105711112Y-50711353D01*
X105617712Y-50731206D01*
X105611682Y-50733891D01*
X105611681Y-50733891D01*
X105449278Y-50806197D01*
X105449276Y-50806198D01*
X105443248Y-50808882D01*
X105437907Y-50812762D01*
X105437906Y-50812763D01*
X105407735Y-50834684D01*
X105288747Y-50921134D01*
X105160960Y-51063056D01*
X105065473Y-51228444D01*
X105006458Y-51410072D01*
X105005768Y-51416633D01*
X105005768Y-51416635D01*
X104999260Y-51478559D01*
X104986496Y-51600000D01*
X104987186Y-51606565D01*
X104987186Y-51606566D01*
X104987349Y-51608117D01*
X104987186Y-51609307D01*
X104987186Y-51613169D01*
X104986657Y-51613169D01*
X104980905Y-51655155D01*
X104982877Y-51655661D01*
X104982876Y-51655663D01*
X104977541Y-51676441D01*
X104971142Y-51695131D01*
X104962620Y-51714824D01*
X104961380Y-51722655D01*
X104955394Y-51760448D01*
X104952987Y-51772071D01*
X104946791Y-51796206D01*
X104941500Y-51816812D01*
X104941500Y-51838259D01*
X104939949Y-51857969D01*
X104936594Y-51879152D01*
X104937340Y-51887043D01*
X104940941Y-51925138D01*
X104941500Y-51936996D01*
X104941500Y-53725241D01*
X104921498Y-53793362D01*
X104909136Y-53809551D01*
X104860960Y-53863056D01*
X104765473Y-54028444D01*
X104706458Y-54210072D01*
X104705768Y-54216633D01*
X104705768Y-54216635D01*
X104691129Y-54355918D01*
X104686496Y-54400000D01*
X88000000Y-54400000D01*
X88000000Y-52933411D01*
X100778493Y-52933411D01*
X100787789Y-52945426D01*
X100838994Y-52981280D01*
X100848489Y-52986763D01*
X101045947Y-53078839D01*
X101056239Y-53082585D01*
X101266688Y-53138974D01*
X101277481Y-53140877D01*
X101494525Y-53159866D01*
X101505475Y-53159866D01*
X101722519Y-53140877D01*
X101733312Y-53138974D01*
X101943761Y-53082585D01*
X101954053Y-53078839D01*
X102151511Y-52986763D01*
X102161006Y-52981280D01*
X102213048Y-52944840D01*
X102221424Y-52934361D01*
X102214356Y-52920915D01*
X101512812Y-52219371D01*
X101498868Y-52211757D01*
X101497035Y-52211888D01*
X101490420Y-52216139D01*
X100784923Y-52921636D01*
X100778493Y-52933411D01*
X88000000Y-52933411D01*
X88000000Y-51852824D01*
X100187483Y-51852824D01*
X100206472Y-52069868D01*
X100208375Y-52080661D01*
X100264764Y-52291110D01*
X100268510Y-52301402D01*
X100360586Y-52498860D01*
X100366069Y-52508355D01*
X100402509Y-52560397D01*
X100412988Y-52568773D01*
X100426434Y-52561705D01*
X101127978Y-51860161D01*
X101134356Y-51848481D01*
X101864408Y-51848481D01*
X101864539Y-51850314D01*
X101868790Y-51856929D01*
X102574287Y-52562426D01*
X102586062Y-52568856D01*
X102598077Y-52559560D01*
X102633931Y-52508355D01*
X102639414Y-52498860D01*
X102731490Y-52301402D01*
X102735236Y-52291110D01*
X102791625Y-52080661D01*
X102793528Y-52069868D01*
X102812517Y-51852824D01*
X102812517Y-51841874D01*
X102793528Y-51624830D01*
X102791625Y-51614037D01*
X102735236Y-51403588D01*
X102731490Y-51393296D01*
X102639414Y-51195838D01*
X102633931Y-51186343D01*
X102597491Y-51134301D01*
X102587012Y-51125925D01*
X102573566Y-51132993D01*
X101872022Y-51834537D01*
X101864408Y-51848481D01*
X101134356Y-51848481D01*
X101135592Y-51846217D01*
X101135461Y-51844384D01*
X101131210Y-51837769D01*
X100425713Y-51132272D01*
X100413938Y-51125842D01*
X100401923Y-51135138D01*
X100366069Y-51186343D01*
X100360586Y-51195838D01*
X100268510Y-51393296D01*
X100264764Y-51403588D01*
X100208375Y-51614037D01*
X100206472Y-51624830D01*
X100187483Y-51841874D01*
X100187483Y-51852824D01*
X88000000Y-51852824D01*
X88000000Y-50760337D01*
X100778576Y-50760337D01*
X100785644Y-50773783D01*
X101487188Y-51475327D01*
X101501132Y-51482941D01*
X101502965Y-51482810D01*
X101509580Y-51478559D01*
X102215077Y-50773062D01*
X102221507Y-50761287D01*
X102212211Y-50749272D01*
X102161006Y-50713418D01*
X102151511Y-50707935D01*
X101954053Y-50615859D01*
X101943761Y-50612113D01*
X101733312Y-50555724D01*
X101722519Y-50553821D01*
X101505475Y-50534832D01*
X101494525Y-50534832D01*
X101277481Y-50553821D01*
X101266688Y-50555724D01*
X101056239Y-50612113D01*
X101045947Y-50615859D01*
X100848489Y-50707935D01*
X100838994Y-50713418D01*
X100786952Y-50749858D01*
X100778576Y-50760337D01*
X88000000Y-50760337D01*
X88000000Y-49195483D01*
X100191500Y-49195483D01*
X100198255Y-49257665D01*
X100249385Y-49394054D01*
X100336739Y-49510610D01*
X100453295Y-49597964D01*
X100589684Y-49649094D01*
X100651866Y-49655849D01*
X102348134Y-49655849D01*
X102410316Y-49649094D01*
X102546705Y-49597964D01*
X102663261Y-49510610D01*
X102750615Y-49394054D01*
X102801745Y-49257665D01*
X102808500Y-49195483D01*
X102808500Y-47499215D01*
X102801745Y-47437033D01*
X102750615Y-47300644D01*
X102663261Y-47184088D01*
X102546705Y-47096734D01*
X102410316Y-47045604D01*
X102348134Y-47038849D01*
X100651866Y-47038849D01*
X100589684Y-47045604D01*
X100453295Y-47096734D01*
X100336739Y-47184088D01*
X100249385Y-47300644D01*
X100198255Y-47437033D01*
X100191500Y-47499215D01*
X100191500Y-49195483D01*
X88000000Y-49195483D01*
X88000000Y-45634000D01*
X88020002Y-45565879D01*
X88073658Y-45519386D01*
X88126000Y-45508000D01*
X146366000Y-45508000D01*
X146434121Y-45528002D01*
G37*
G04 #@! TD.AperFunction*
M02*
