G04 #@! TF.GenerationSoftware,KiCad,Pcbnew,6.0.0-rc1-unknown-c40e921cb3~144~ubuntu20.04.1*
G04 #@! TF.CreationDate,2021-11-22T05:53:21+02:00*
G04 #@! TF.ProjectId,PSU-NONISOLATED,5053552d-4e4f-44e4-9953-4f4c41544544,rev?*
G04 #@! TF.SameCoordinates,Original*
G04 #@! TF.FileFunction,Soldermask,Top*
G04 #@! TF.FilePolarity,Negative*
%FSLAX46Y46*%
G04 Gerber Fmt 4.6, Leading zero omitted, Abs format (unit mm)*
G04 Created by KiCad (PCBNEW 6.0.0-rc1-unknown-c40e921cb3~144~ubuntu20.04.1) date 2021-11-22 05:53:21*
%MOMM*%
%LPD*%
G01*
G04 APERTURE LIST*
G04 Aperture macros list*
%AMRoundRect*
0 Rectangle with rounded corners*
0 $1 Rounding radius*
0 $2 $3 $4 $5 $6 $7 $8 $9 X,Y pos of 4 corners*
0 Add a 4 corners polygon primitive as box body*
4,1,4,$2,$3,$4,$5,$6,$7,$8,$9,$2,$3,0*
0 Add four circle primitives for the rounded corners*
1,1,$1+$1,$2,$3*
1,1,$1+$1,$4,$5*
1,1,$1+$1,$6,$7*
1,1,$1+$1,$8,$9*
0 Add four rect primitives between the rounded corners*
20,1,$1+$1,$2,$3,$4,$5,0*
20,1,$1+$1,$4,$5,$6,$7,0*
20,1,$1+$1,$6,$7,$8,$9,0*
20,1,$1+$1,$8,$9,$2,$3,0*%
G04 Aperture macros list end*
%ADD10R,1.800000X2.500000*%
%ADD11R,2.150000X5.500000*%
%ADD12C,1.400000*%
%ADD13O,1.400000X1.400000*%
%ADD14R,1.600000X1.600000*%
%ADD15C,1.600000*%
%ADD16R,3.960000X1.980000*%
%ADD17O,3.960000X1.980000*%
%ADD18RoundRect,0.250000X0.325000X0.650000X-0.325000X0.650000X-0.325000X-0.650000X0.325000X-0.650000X0*%
%ADD19R,1.100000X1.100000*%
%ADD20RoundRect,0.218750X0.218750X0.256250X-0.218750X0.256250X-0.218750X-0.256250X0.218750X-0.256250X0*%
%ADD21RoundRect,0.200000X0.200000X0.275000X-0.200000X0.275000X-0.200000X-0.275000X0.200000X-0.275000X0*%
%ADD22RoundRect,0.225000X-0.225000X-0.250000X0.225000X-0.250000X0.225000X0.250000X-0.225000X0.250000X0*%
%ADD23R,5.500000X2.150000*%
%ADD24RoundRect,0.200000X-0.200000X-0.275000X0.200000X-0.275000X0.200000X0.275000X-0.200000X0.275000X0*%
%ADD25R,2.000000X0.600000*%
G04 APERTURE END LIST*
D10*
X112500000Y-57600000D03*
X112500000Y-61600000D03*
D11*
X115975000Y-51900000D03*
X119825000Y-51900000D03*
D10*
X123900000Y-56382379D03*
X123900000Y-52382379D03*
D12*
X76300000Y-53810000D03*
D13*
X76300000Y-46190000D03*
D14*
X95000000Y-57847349D03*
D15*
X95000000Y-61347349D03*
D16*
X140200000Y-51935000D03*
D17*
X140200000Y-56935000D03*
D18*
X109575000Y-59800000D03*
X106625000Y-59800000D03*
D19*
X89200000Y-54900000D03*
X89200000Y-57700000D03*
X89200000Y-62300000D03*
X89200000Y-59500000D03*
D15*
X79900000Y-59250000D03*
X84900000Y-60750000D03*
D20*
X129787500Y-48500000D03*
X128212500Y-48500000D03*
D21*
X105525000Y-57500000D03*
X103875000Y-57500000D03*
X125815000Y-48540000D03*
X124165000Y-48540000D03*
D22*
X108225000Y-55600000D03*
X109775000Y-55600000D03*
D12*
X76300000Y-56190000D03*
D13*
X76300000Y-63810000D03*
D16*
X67900000Y-57765000D03*
D17*
X67900000Y-52765000D03*
D14*
X101500000Y-48347349D03*
D15*
X101500000Y-51847349D03*
D23*
X93500000Y-51925000D03*
X93500000Y-48075000D03*
D24*
X108075000Y-57500000D03*
X109725000Y-57500000D03*
D25*
X108004698Y-49695000D03*
X108004698Y-50965000D03*
X108004698Y-53505000D03*
X112904698Y-53505000D03*
X112904698Y-52235000D03*
X112904698Y-50965000D03*
X112904698Y-49695000D03*
D14*
X129600000Y-53317621D03*
D15*
X129600000Y-55817621D03*
M02*
