M48
; DRILL file {KiCad 6.0.0-rc1-unknown-c40e921cb3~144~ubuntu20.04.1} date Mon 22 Nov 2021 05:53:21 EET
; FORMAT={-:-/ absolute / inch / decimal}
; #@! TF.CreationDate,2021-11-22T05:53:21+02:00
; #@! TF.GenerationSoftware,Kicad,Pcbnew,6.0.0-rc1-unknown-c40e921cb3~144~ubuntu20.04.1
; #@! TF.FileFunction,Plated,1,2,PTH
FMAT,2
INCH
; #@! TA.AperFunction,Plated,PTH,ViaDrill
T1C0.0157
; #@! TA.AperFunction,Plated,PTH,ComponentDrill
T2C0.0276
; #@! TA.AperFunction,Plated,PTH,ComponentDrill
T3C0.0315
; #@! TA.AperFunction,Plated,PTH,ComponentDrill
T4C0.0520
%
G90
G05
T1
X3.5748Y-2.3346
X4.1575Y-2.1417
X4.1693Y-2.0315
X4.4882Y-2.3976
X5.1575Y-1.9094
T2
X3.0039Y-1.8185
X3.0039Y-2.1185
X3.0039Y-2.2122
X3.0039Y-2.5122
X3.1457Y-2.3327
X3.3425Y-2.3917
T3
X3.7402Y-2.2775
X3.7402Y-2.4152
X3.9961Y-1.9034
X3.9961Y-2.0412
X5.1024Y-2.0991
X5.1024Y-2.1975
T4
X2.6732Y-2.0774
X2.6732Y-2.2742
X5.5197Y-2.0447
X5.5197Y-2.2415
T0
M30
