G04 #@! TF.GenerationSoftware,KiCad,Pcbnew,6.0.0-rc1-unknown-c40e921cb3~144~ubuntu20.04.1*
G04 #@! TF.CreationDate,2021-11-22T05:53:21+02:00*
G04 #@! TF.ProjectId,PSU-NONISOLATED,5053552d-4e4f-44e4-9953-4f4c41544544,rev?*
G04 #@! TF.SameCoordinates,Original*
G04 #@! TF.FileFunction,Legend,Top*
G04 #@! TF.FilePolarity,Positive*
%FSLAX46Y46*%
G04 Gerber Fmt 4.6, Leading zero omitted, Abs format (unit mm)*
G04 Created by KiCad (PCBNEW 6.0.0-rc1-unknown-c40e921cb3~144~ubuntu20.04.1) date 2021-11-22 05:53:21*
%MOMM*%
%LPD*%
G01*
G04 APERTURE LIST*
G04 Aperture macros list*
%AMRoundRect*
0 Rectangle with rounded corners*
0 $1 Rounding radius*
0 $2 $3 $4 $5 $6 $7 $8 $9 X,Y pos of 4 corners*
0 Add a 4 corners polygon primitive as box body*
4,1,4,$2,$3,$4,$5,$6,$7,$8,$9,$2,$3,0*
0 Add four circle primitives for the rounded corners*
1,1,$1+$1,$2,$3*
1,1,$1+$1,$4,$5*
1,1,$1+$1,$6,$7*
1,1,$1+$1,$8,$9*
0 Add four rect primitives between the rounded corners*
20,1,$1+$1,$2,$3,$4,$5,0*
20,1,$1+$1,$4,$5,$6,$7,0*
20,1,$1+$1,$6,$7,$8,$9,0*
20,1,$1+$1,$8,$9,$2,$3,0*%
G04 Aperture macros list end*
%ADD10C,0.150000*%
%ADD11C,0.300000*%
%ADD12C,0.120000*%
%ADD13R,1.800000X2.500000*%
%ADD14R,2.150000X5.500000*%
%ADD15C,1.400000*%
%ADD16O,1.400000X1.400000*%
%ADD17R,1.600000X1.600000*%
%ADD18C,1.600000*%
%ADD19R,3.960000X1.980000*%
%ADD20O,3.960000X1.980000*%
%ADD21RoundRect,0.250000X0.325000X0.650000X-0.325000X0.650000X-0.325000X-0.650000X0.325000X-0.650000X0*%
%ADD22R,1.100000X1.100000*%
%ADD23RoundRect,0.218750X0.218750X0.256250X-0.218750X0.256250X-0.218750X-0.256250X0.218750X-0.256250X0*%
%ADD24RoundRect,0.200000X0.200000X0.275000X-0.200000X0.275000X-0.200000X-0.275000X0.200000X-0.275000X0*%
%ADD25RoundRect,0.225000X-0.225000X-0.250000X0.225000X-0.250000X0.225000X0.250000X-0.225000X0.250000X0*%
%ADD26R,5.500000X2.150000*%
%ADD27RoundRect,0.200000X-0.200000X-0.275000X0.200000X-0.275000X0.200000X0.275000X-0.200000X0.275000X0*%
%ADD28R,2.000000X0.600000*%
G04 APERTURE END LIST*
D10*
X80490476Y-50342619D02*
X80538095Y-50295000D01*
X80633333Y-50247380D01*
X80871428Y-50247380D01*
X80966666Y-50295000D01*
X81014285Y-50342619D01*
X81061904Y-50437857D01*
X81061904Y-50533095D01*
X81014285Y-50675952D01*
X80442857Y-51247380D01*
X81061904Y-51247380D01*
X81442857Y-50342619D02*
X81490476Y-50295000D01*
X81585714Y-50247380D01*
X81823809Y-50247380D01*
X81919047Y-50295000D01*
X81966666Y-50342619D01*
X82014285Y-50437857D01*
X82014285Y-50533095D01*
X81966666Y-50675952D01*
X81395238Y-51247380D01*
X82014285Y-51247380D01*
X82633333Y-50247380D02*
X82728571Y-50247380D01*
X82823809Y-50295000D01*
X82871428Y-50342619D01*
X82919047Y-50437857D01*
X82966666Y-50628333D01*
X82966666Y-50866428D01*
X82919047Y-51056904D01*
X82871428Y-51152142D01*
X82823809Y-51199761D01*
X82728571Y-51247380D01*
X82633333Y-51247380D01*
X82538095Y-51199761D01*
X82490476Y-51152142D01*
X82442857Y-51056904D01*
X82395238Y-50866428D01*
X82395238Y-50628333D01*
X82442857Y-50437857D01*
X82490476Y-50342619D01*
X82538095Y-50295000D01*
X82633333Y-50247380D01*
X83252380Y-50247380D02*
X83585714Y-51247380D01*
X83919047Y-50247380D01*
X85014285Y-51247380D02*
X85014285Y-50247380D01*
X85490476Y-51247380D02*
X85490476Y-50247380D01*
X86061904Y-51247380D01*
X86061904Y-50247380D01*
X81823809Y-52190714D02*
X81061904Y-52476428D01*
X81823809Y-52762142D01*
X82300000Y-52476428D02*
X83061904Y-52476428D01*
X83538095Y-52476428D02*
X84300000Y-52476428D01*
X84776190Y-52476428D02*
X85538095Y-52476428D01*
D11*
X124071428Y-63678571D02*
X124071428Y-62178571D01*
X124428571Y-62178571D01*
X124642857Y-62250000D01*
X124785714Y-62392857D01*
X124857142Y-62535714D01*
X124928571Y-62821428D01*
X124928571Y-63035714D01*
X124857142Y-63321428D01*
X124785714Y-63464285D01*
X124642857Y-63607142D01*
X124428571Y-63678571D01*
X124071428Y-63678571D01*
X125500000Y-63250000D02*
X126214285Y-63250000D01*
X125357142Y-63678571D02*
X125857142Y-62178571D01*
X126357142Y-63678571D01*
X126857142Y-63678571D02*
X126857142Y-62178571D01*
X127714285Y-63678571D01*
X127714285Y-62178571D01*
X129214285Y-62250000D02*
X129071428Y-62178571D01*
X128857142Y-62178571D01*
X128642857Y-62250000D01*
X128500000Y-62392857D01*
X128428571Y-62535714D01*
X128357142Y-62821428D01*
X128357142Y-63035714D01*
X128428571Y-63321428D01*
X128500000Y-63464285D01*
X128642857Y-63607142D01*
X128857142Y-63678571D01*
X129000000Y-63678571D01*
X129214285Y-63607142D01*
X129285714Y-63535714D01*
X129285714Y-63035714D01*
X129000000Y-63035714D01*
X129928571Y-62892857D02*
X130428571Y-62892857D01*
X130642857Y-63678571D02*
X129928571Y-63678571D01*
X129928571Y-62178571D01*
X130642857Y-62178571D01*
X132142857Y-63678571D02*
X131642857Y-62964285D01*
X131285714Y-63678571D02*
X131285714Y-62178571D01*
X131857142Y-62178571D01*
X132000000Y-62250000D01*
X132071428Y-62321428D01*
X132142857Y-62464285D01*
X132142857Y-62678571D01*
X132071428Y-62821428D01*
X132000000Y-62892857D01*
X131857142Y-62964285D01*
X131285714Y-62964285D01*
X133071428Y-62178571D02*
X133357142Y-62178571D01*
X133500000Y-62250000D01*
X133642857Y-62392857D01*
X133714285Y-62678571D01*
X133714285Y-63178571D01*
X133642857Y-63464285D01*
X133500000Y-63607142D01*
X133357142Y-63678571D01*
X133071428Y-63678571D01*
X132928571Y-63607142D01*
X132785714Y-63464285D01*
X132714285Y-63178571D01*
X132714285Y-62678571D01*
X132785714Y-62392857D01*
X132928571Y-62250000D01*
X133071428Y-62178571D01*
X134357142Y-62178571D02*
X134357142Y-63392857D01*
X134428571Y-63535714D01*
X134500000Y-63607142D01*
X134642857Y-63678571D01*
X134928571Y-63678571D01*
X135071428Y-63607142D01*
X135142857Y-63535714D01*
X135214285Y-63392857D01*
X135214285Y-62178571D01*
X135857142Y-63607142D02*
X136071428Y-63678571D01*
X136428571Y-63678571D01*
X136571428Y-63607142D01*
X136642857Y-63535714D01*
X136714285Y-63392857D01*
X136714285Y-63250000D01*
X136642857Y-63107142D01*
X136571428Y-63035714D01*
X136428571Y-62964285D01*
X136142857Y-62892857D01*
X136000000Y-62821428D01*
X135928571Y-62750000D01*
X135857142Y-62607142D01*
X135857142Y-62464285D01*
X135928571Y-62321428D01*
X136000000Y-62250000D01*
X136142857Y-62178571D01*
X136500000Y-62178571D01*
X136714285Y-62250000D01*
X137357142Y-63535714D02*
X137428571Y-63607142D01*
X137357142Y-63678571D01*
X137285714Y-63607142D01*
X137357142Y-63535714D01*
X137357142Y-63678571D01*
X137357142Y-63107142D02*
X137285714Y-62250000D01*
X137357142Y-62178571D01*
X137428571Y-62250000D01*
X137357142Y-63107142D01*
X137357142Y-62178571D01*
X139214285Y-63678571D02*
X139214285Y-62178571D01*
X139714285Y-63250000D01*
X140214285Y-62178571D01*
X140214285Y-63678571D01*
X140857142Y-63250000D02*
X141571428Y-63250000D01*
X140714285Y-63678571D02*
X141214285Y-62178571D01*
X141714285Y-63678571D01*
X142214285Y-63678571D02*
X142214285Y-62178571D01*
X142928571Y-63678571D02*
X142928571Y-62178571D01*
X143785714Y-63678571D01*
X143785714Y-62178571D01*
X144428571Y-63607142D02*
X144642857Y-63678571D01*
X145000000Y-63678571D01*
X145142857Y-63607142D01*
X145214285Y-63535714D01*
X145285714Y-63392857D01*
X145285714Y-63250000D01*
X145214285Y-63107142D01*
X145142857Y-63035714D01*
X145000000Y-62964285D01*
X144714285Y-62892857D01*
X144571428Y-62821428D01*
X144500000Y-62750000D01*
X144428571Y-62607142D01*
X144428571Y-62464285D01*
X144500000Y-62321428D01*
X144571428Y-62250000D01*
X144714285Y-62178571D01*
X145071428Y-62178571D01*
X145285714Y-62250000D01*
X145928571Y-63535714D02*
X146000000Y-63607142D01*
X145928571Y-63678571D01*
X145857142Y-63607142D01*
X145928571Y-63535714D01*
X145928571Y-63678571D01*
X145928571Y-63107142D02*
X145857142Y-62250000D01*
X145928571Y-62178571D01*
X146000000Y-62250000D01*
X145928571Y-63107142D01*
X145928571Y-62178571D01*
D10*
X122119047Y-50271428D02*
X122880952Y-50271428D01*
X122500000Y-50652380D02*
X122500000Y-49890476D01*
X87219047Y-59471428D02*
X87980952Y-59471428D01*
X87600000Y-59852380D02*
X87600000Y-59090476D01*
X87219047Y-57671428D02*
X87980952Y-57671428D01*
X87600000Y-58052380D02*
X87600000Y-57290476D01*
X127619047Y-47071428D02*
X128380952Y-47071428D01*
X128000000Y-47452380D02*
X128000000Y-46690476D01*
X138047619Y-47452380D02*
X138380952Y-48452380D01*
X138714285Y-47452380D01*
X139619047Y-48357142D02*
X139571428Y-48404761D01*
X139428571Y-48452380D01*
X139333333Y-48452380D01*
X139190476Y-48404761D01*
X139095238Y-48309523D01*
X139047619Y-48214285D01*
X139000000Y-48023809D01*
X139000000Y-47880952D01*
X139047619Y-47690476D01*
X139095238Y-47595238D01*
X139190476Y-47500000D01*
X139333333Y-47452380D01*
X139428571Y-47452380D01*
X139571428Y-47500000D01*
X139619047Y-47547619D01*
X140619047Y-48357142D02*
X140571428Y-48404761D01*
X140428571Y-48452380D01*
X140333333Y-48452380D01*
X140190476Y-48404761D01*
X140095238Y-48309523D01*
X140047619Y-48214285D01*
X140000000Y-48023809D01*
X140000000Y-47880952D01*
X140047619Y-47690476D01*
X140095238Y-47595238D01*
X140190476Y-47500000D01*
X140333333Y-47452380D01*
X140428571Y-47452380D01*
X140571428Y-47500000D01*
X140619047Y-47547619D01*
X141047619Y-48071428D02*
X141809523Y-48071428D01*
X141428571Y-48452380D02*
X141428571Y-47690476D01*
X115452380Y-60338095D02*
X114452380Y-60338095D01*
X114452380Y-60100000D01*
X114500000Y-59957142D01*
X114595238Y-59861904D01*
X114690476Y-59814285D01*
X114880952Y-59766666D01*
X115023809Y-59766666D01*
X115214285Y-59814285D01*
X115309523Y-59861904D01*
X115404761Y-59957142D01*
X115452380Y-60100000D01*
X115452380Y-60338095D01*
X114452380Y-59433333D02*
X114452380Y-58814285D01*
X114833333Y-59147619D01*
X114833333Y-59004761D01*
X114880952Y-58909523D01*
X114928571Y-58861904D01*
X115023809Y-58814285D01*
X115261904Y-58814285D01*
X115357142Y-58861904D01*
X115404761Y-58909523D01*
X115452380Y-59004761D01*
X115452380Y-59290476D01*
X115404761Y-59385714D01*
X115357142Y-59433333D01*
X117733333Y-48352380D02*
X117257142Y-48352380D01*
X117257142Y-47352380D01*
X117971428Y-47352380D02*
X118590476Y-47352380D01*
X118257142Y-47733333D01*
X118400000Y-47733333D01*
X118495238Y-47780952D01*
X118542857Y-47828571D01*
X118590476Y-47923809D01*
X118590476Y-48161904D01*
X118542857Y-48257142D01*
X118495238Y-48304761D01*
X118400000Y-48352380D01*
X118114285Y-48352380D01*
X118019047Y-48304761D01*
X117971428Y-48257142D01*
X125552380Y-59938095D02*
X124552380Y-59938095D01*
X124552380Y-59700000D01*
X124600000Y-59557142D01*
X124695238Y-59461904D01*
X124790476Y-59414285D01*
X124980952Y-59366666D01*
X125123809Y-59366666D01*
X125314285Y-59414285D01*
X125409523Y-59461904D01*
X125504761Y-59557142D01*
X125552380Y-59700000D01*
X125552380Y-59938095D01*
X124885714Y-58509523D02*
X125552380Y-58509523D01*
X124504761Y-58747619D02*
X125219047Y-58985714D01*
X125219047Y-58366666D01*
X74128571Y-48733333D02*
X74128571Y-49066666D01*
X74652380Y-49066666D02*
X73652380Y-49066666D01*
X73652380Y-48590476D01*
X74652380Y-47685714D02*
X74652380Y-48257142D01*
X74652380Y-47971428D02*
X73652380Y-47971428D01*
X73795238Y-48066666D01*
X73890476Y-48161904D01*
X73938095Y-48257142D01*
X100607142Y-59764015D02*
X100654761Y-59811634D01*
X100702380Y-59954491D01*
X100702380Y-60049729D01*
X100654761Y-60192587D01*
X100559523Y-60287825D01*
X100464285Y-60335444D01*
X100273809Y-60383063D01*
X100130952Y-60383063D01*
X99940476Y-60335444D01*
X99845238Y-60287825D01*
X99750000Y-60192587D01*
X99702380Y-60049729D01*
X99702380Y-59954491D01*
X99750000Y-59811634D01*
X99797619Y-59764015D01*
X100702380Y-58811634D02*
X100702380Y-59383063D01*
X100702380Y-59097349D02*
X99702380Y-59097349D01*
X99845238Y-59192587D01*
X99940476Y-59287825D01*
X99988095Y-59383063D01*
X145152380Y-48333333D02*
X145866666Y-48333333D01*
X146009523Y-48380952D01*
X146104761Y-48476190D01*
X146152380Y-48619047D01*
X146152380Y-48714285D01*
X145247619Y-47904761D02*
X145200000Y-47857142D01*
X145152380Y-47761904D01*
X145152380Y-47523809D01*
X145200000Y-47428571D01*
X145247619Y-47380952D01*
X145342857Y-47333333D01*
X145438095Y-47333333D01*
X145580952Y-47380952D01*
X146152380Y-47952380D01*
X146152380Y-47333333D01*
X107933333Y-62007142D02*
X107885714Y-62054761D01*
X107742857Y-62102380D01*
X107647619Y-62102380D01*
X107504761Y-62054761D01*
X107409523Y-61959523D01*
X107361904Y-61864285D01*
X107314285Y-61673809D01*
X107314285Y-61530952D01*
X107361904Y-61340476D01*
X107409523Y-61245238D01*
X107504761Y-61150000D01*
X107647619Y-61102380D01*
X107742857Y-61102380D01*
X107885714Y-61150000D01*
X107933333Y-61197619D01*
X108790476Y-61435714D02*
X108790476Y-62102380D01*
X108552380Y-61054761D02*
X108314285Y-61769047D01*
X108933333Y-61769047D01*
X91557380Y-56911095D02*
X90557380Y-56911095D01*
X90557380Y-56673000D01*
X90605000Y-56530142D01*
X90700238Y-56434904D01*
X90795476Y-56387285D01*
X90985952Y-56339666D01*
X91128809Y-56339666D01*
X91319285Y-56387285D01*
X91414523Y-56434904D01*
X91509761Y-56530142D01*
X91557380Y-56673000D01*
X91557380Y-56911095D01*
X91557380Y-55387285D02*
X91557380Y-55958714D01*
X91557380Y-55673000D02*
X90557380Y-55673000D01*
X90700238Y-55768238D01*
X90795476Y-55863476D01*
X90843095Y-55958714D01*
X91552380Y-64238095D02*
X90552380Y-64238095D01*
X90552380Y-64000000D01*
X90600000Y-63857142D01*
X90695238Y-63761904D01*
X90790476Y-63714285D01*
X90980952Y-63666666D01*
X91123809Y-63666666D01*
X91314285Y-63714285D01*
X91409523Y-63761904D01*
X91504761Y-63857142D01*
X91552380Y-64000000D01*
X91552380Y-64238095D01*
X90647619Y-63285714D02*
X90600000Y-63238095D01*
X90552380Y-63142857D01*
X90552380Y-62904761D01*
X90600000Y-62809523D01*
X90647619Y-62761904D01*
X90742857Y-62714285D01*
X90838095Y-62714285D01*
X90980952Y-62761904D01*
X91552380Y-63333333D01*
X91552380Y-62714285D01*
X81804761Y-64422380D02*
X81471428Y-63946190D01*
X81233333Y-64422380D02*
X81233333Y-63422380D01*
X81614285Y-63422380D01*
X81709523Y-63470000D01*
X81757142Y-63517619D01*
X81804761Y-63612857D01*
X81804761Y-63755714D01*
X81757142Y-63850952D01*
X81709523Y-63898571D01*
X81614285Y-63946190D01*
X81233333Y-63946190D01*
X82090476Y-63422380D02*
X82423809Y-64422380D01*
X82757142Y-63422380D01*
X83614285Y-64422380D02*
X83042857Y-64422380D01*
X83328571Y-64422380D02*
X83328571Y-63422380D01*
X83233333Y-63565238D01*
X83138095Y-63660476D01*
X83042857Y-63708095D01*
X128261904Y-50382380D02*
X128261904Y-49382380D01*
X128500000Y-49382380D01*
X128642857Y-49430000D01*
X128738095Y-49525238D01*
X128785714Y-49620476D01*
X128833333Y-49810952D01*
X128833333Y-49953809D01*
X128785714Y-50144285D01*
X128738095Y-50239523D01*
X128642857Y-50334761D01*
X128500000Y-50382380D01*
X128261904Y-50382380D01*
X129738095Y-49382380D02*
X129261904Y-49382380D01*
X129214285Y-49858571D01*
X129261904Y-49810952D01*
X129357142Y-49763333D01*
X129595238Y-49763333D01*
X129690476Y-49810952D01*
X129738095Y-49858571D01*
X129785714Y-49953809D01*
X129785714Y-50191904D01*
X129738095Y-50287142D01*
X129690476Y-50334761D01*
X129595238Y-50382380D01*
X129357142Y-50382380D01*
X129261904Y-50334761D01*
X129214285Y-50287142D01*
X104533333Y-59382380D02*
X104200000Y-58906190D01*
X103961904Y-59382380D02*
X103961904Y-58382380D01*
X104342857Y-58382380D01*
X104438095Y-58430000D01*
X104485714Y-58477619D01*
X104533333Y-58572857D01*
X104533333Y-58715714D01*
X104485714Y-58810952D01*
X104438095Y-58858571D01*
X104342857Y-58906190D01*
X103961904Y-58906190D01*
X104914285Y-58477619D02*
X104961904Y-58430000D01*
X105057142Y-58382380D01*
X105295238Y-58382380D01*
X105390476Y-58430000D01*
X105438095Y-58477619D01*
X105485714Y-58572857D01*
X105485714Y-58668095D01*
X105438095Y-58810952D01*
X104866666Y-59382380D01*
X105485714Y-59382380D01*
X124823333Y-50422380D02*
X124490000Y-49946190D01*
X124251904Y-50422380D02*
X124251904Y-49422380D01*
X124632857Y-49422380D01*
X124728095Y-49470000D01*
X124775714Y-49517619D01*
X124823333Y-49612857D01*
X124823333Y-49755714D01*
X124775714Y-49850952D01*
X124728095Y-49898571D01*
X124632857Y-49946190D01*
X124251904Y-49946190D01*
X125156666Y-49422380D02*
X125775714Y-49422380D01*
X125442380Y-49803333D01*
X125585238Y-49803333D01*
X125680476Y-49850952D01*
X125728095Y-49898571D01*
X125775714Y-49993809D01*
X125775714Y-50231904D01*
X125728095Y-50327142D01*
X125680476Y-50374761D01*
X125585238Y-50422380D01*
X125299523Y-50422380D01*
X125204285Y-50374761D01*
X125156666Y-50327142D01*
X106233333Y-55857142D02*
X106185714Y-55904761D01*
X106042857Y-55952380D01*
X105947619Y-55952380D01*
X105804761Y-55904761D01*
X105709523Y-55809523D01*
X105661904Y-55714285D01*
X105614285Y-55523809D01*
X105614285Y-55380952D01*
X105661904Y-55190476D01*
X105709523Y-55095238D01*
X105804761Y-55000000D01*
X105947619Y-54952380D01*
X106042857Y-54952380D01*
X106185714Y-55000000D01*
X106233333Y-55047619D01*
X106566666Y-54952380D02*
X107185714Y-54952380D01*
X106852380Y-55333333D01*
X106995238Y-55333333D01*
X107090476Y-55380952D01*
X107138095Y-55428571D01*
X107185714Y-55523809D01*
X107185714Y-55761904D01*
X107138095Y-55857142D01*
X107090476Y-55904761D01*
X106995238Y-55952380D01*
X106709523Y-55952380D01*
X106614285Y-55904761D01*
X106566666Y-55857142D01*
X74652380Y-63466666D02*
X74652380Y-63942857D01*
X73652380Y-63942857D01*
X74652380Y-62609523D02*
X74652380Y-63180952D01*
X74652380Y-62895238D02*
X73652380Y-62895238D01*
X73795238Y-62990476D01*
X73890476Y-63085714D01*
X73938095Y-63180952D01*
X67352380Y-62133333D02*
X68066666Y-62133333D01*
X68209523Y-62180952D01*
X68304761Y-62276190D01*
X68352380Y-62419047D01*
X68352380Y-62514285D01*
X68352380Y-61133333D02*
X68352380Y-61704761D01*
X68352380Y-61419047D02*
X67352380Y-61419047D01*
X67495238Y-61514285D01*
X67590476Y-61609523D01*
X67638095Y-61704761D01*
X106257142Y-47166666D02*
X106304761Y-47214285D01*
X106352380Y-47357142D01*
X106352380Y-47452380D01*
X106304761Y-47595238D01*
X106209523Y-47690476D01*
X106114285Y-47738095D01*
X105923809Y-47785714D01*
X105780952Y-47785714D01*
X105590476Y-47738095D01*
X105495238Y-47690476D01*
X105400000Y-47595238D01*
X105352380Y-47452380D01*
X105352380Y-47357142D01*
X105400000Y-47214285D01*
X105447619Y-47166666D01*
X105447619Y-46785714D02*
X105400000Y-46738095D01*
X105352380Y-46642857D01*
X105352380Y-46404761D01*
X105400000Y-46309523D01*
X105447619Y-46261904D01*
X105542857Y-46214285D01*
X105638095Y-46214285D01*
X105780952Y-46261904D01*
X106352380Y-46833333D01*
X106352380Y-46214285D01*
X89952380Y-50166666D02*
X89952380Y-50642857D01*
X88952380Y-50642857D01*
X89047619Y-49880952D02*
X89000000Y-49833333D01*
X88952380Y-49738095D01*
X88952380Y-49500000D01*
X89000000Y-49404761D01*
X89047619Y-49357142D01*
X89142857Y-49309523D01*
X89238095Y-49309523D01*
X89380952Y-49357142D01*
X89952380Y-49928571D01*
X89952380Y-49309523D01*
X111433333Y-55852380D02*
X111100000Y-55376190D01*
X110861904Y-55852380D02*
X110861904Y-54852380D01*
X111242857Y-54852380D01*
X111338095Y-54900000D01*
X111385714Y-54947619D01*
X111433333Y-55042857D01*
X111433333Y-55185714D01*
X111385714Y-55280952D01*
X111338095Y-55328571D01*
X111242857Y-55376190D01*
X110861904Y-55376190D01*
X112385714Y-55852380D02*
X111814285Y-55852380D01*
X112100000Y-55852380D02*
X112100000Y-54852380D01*
X112004761Y-54995238D01*
X111909523Y-55090476D01*
X111814285Y-55138095D01*
X109692793Y-47552380D02*
X109692793Y-48361904D01*
X109740412Y-48457142D01*
X109788031Y-48504761D01*
X109883269Y-48552380D01*
X110073745Y-48552380D01*
X110168983Y-48504761D01*
X110216602Y-48457142D01*
X110264221Y-48361904D01*
X110264221Y-47552380D01*
X111264221Y-48552380D02*
X110692793Y-48552380D01*
X110978507Y-48552380D02*
X110978507Y-47552380D01*
X110883269Y-47695238D01*
X110788031Y-47790476D01*
X110692793Y-47838095D01*
X129857142Y-59466666D02*
X129904761Y-59514285D01*
X129952380Y-59657142D01*
X129952380Y-59752380D01*
X129904761Y-59895238D01*
X129809523Y-59990476D01*
X129714285Y-60038095D01*
X129523809Y-60085714D01*
X129380952Y-60085714D01*
X129190476Y-60038095D01*
X129095238Y-59990476D01*
X129000000Y-59895238D01*
X128952380Y-59752380D01*
X128952380Y-59657142D01*
X129000000Y-59514285D01*
X129047619Y-59466666D01*
X128952380Y-58561904D02*
X128952380Y-59038095D01*
X129428571Y-59085714D01*
X129380952Y-59038095D01*
X129333333Y-58942857D01*
X129333333Y-58704761D01*
X129380952Y-58609523D01*
X129428571Y-58561904D01*
X129523809Y-58514285D01*
X129761904Y-58514285D01*
X129857142Y-58561904D01*
X129904761Y-58609523D01*
X129952380Y-58704761D01*
X129952380Y-58942857D01*
X129904761Y-59038095D01*
X129857142Y-59085714D01*
D12*
X114150000Y-56200000D02*
X110850000Y-56200000D01*
X114150000Y-56200000D02*
X114150000Y-61600000D01*
X110850000Y-56200000D02*
X110850000Y-61600000D01*
X117300000Y-54700000D02*
X118500000Y-54700000D01*
X118500000Y-49100000D02*
X117300000Y-49100000D01*
X122250000Y-57782379D02*
X122250000Y-52382379D01*
X122250000Y-57782379D02*
X125550000Y-57782379D01*
X125550000Y-57782379D02*
X125550000Y-52382379D01*
X75380000Y-51920000D02*
X77220000Y-51920000D01*
X75380000Y-48080000D02*
X75380000Y-51920000D01*
X76300000Y-52870000D02*
X76300000Y-51920000D01*
X76300000Y-47130000D02*
X76300000Y-48080000D01*
X77220000Y-51920000D02*
X77220000Y-48080000D01*
X77220000Y-48080000D02*
X75380000Y-48080000D01*
X98090000Y-62278349D02*
X96040000Y-62278349D01*
X97454000Y-62878349D02*
X92546000Y-62878349D01*
X97715000Y-55587651D02*
X96915000Y-55587651D01*
X99080000Y-59597349D02*
X90920000Y-59597349D01*
X98957000Y-60598349D02*
X96040000Y-60598349D01*
X97867000Y-62518349D02*
X92133000Y-62518349D01*
X93960000Y-60758349D02*
X91086000Y-60758349D01*
X98584000Y-61558349D02*
X96040000Y-61558349D01*
X98790000Y-61118349D02*
X96040000Y-61118349D01*
X93960000Y-61998349D02*
X91691000Y-61998349D01*
X99071000Y-59877349D02*
X90929000Y-59877349D01*
X95768000Y-63638349D02*
X94232000Y-63638349D01*
X98627000Y-61478349D02*
X96040000Y-61478349D01*
X93960000Y-60638349D02*
X91053000Y-60638349D01*
X99010000Y-60358349D02*
X96040000Y-60358349D01*
X99052000Y-60077349D02*
X90948000Y-60077349D01*
X93960000Y-61598349D02*
X91438000Y-61598349D01*
X93960000Y-60838349D02*
X91111000Y-60838349D01*
X98666000Y-61398349D02*
X96040000Y-61398349D01*
X99017000Y-60318349D02*
X96040000Y-60318349D01*
X93960000Y-61918349D02*
X91635000Y-61918349D01*
X93960000Y-61318349D02*
X91296000Y-61318349D01*
X98540000Y-61638349D02*
X96040000Y-61638349D01*
X96229000Y-63518349D02*
X93771000Y-63518349D01*
X96645000Y-63358349D02*
X93355000Y-63358349D01*
X93960000Y-60438349D02*
X91006000Y-60438349D01*
X98947000Y-60638349D02*
X96040000Y-60638349D01*
X99024000Y-60277349D02*
X90976000Y-60277349D01*
X97034000Y-63158349D02*
X92966000Y-63158349D01*
X98647000Y-61438349D02*
X96040000Y-61438349D01*
X99048000Y-60117349D02*
X90952000Y-60117349D01*
X98936000Y-60678349D02*
X96040000Y-60678349D01*
X97983000Y-62398349D02*
X92017000Y-62398349D01*
X93960000Y-62278349D02*
X91910000Y-62278349D01*
X98686000Y-61358349D02*
X96040000Y-61358349D01*
X93960000Y-61558349D02*
X91416000Y-61558349D01*
X93960000Y-61398349D02*
X91334000Y-61398349D01*
X98889000Y-60838349D02*
X96040000Y-60838349D01*
X99080000Y-59637349D02*
X90920000Y-59637349D01*
X93960000Y-61038349D02*
X91179000Y-61038349D01*
X96098000Y-63558349D02*
X93902000Y-63558349D01*
X93960000Y-61638349D02*
X91460000Y-61638349D01*
X96890000Y-63238349D02*
X93110000Y-63238349D01*
X93960000Y-60518349D02*
X91024000Y-60518349D01*
X93960000Y-61958349D02*
X91662000Y-61958349D01*
X97697000Y-62678349D02*
X92303000Y-62678349D01*
X97287000Y-62998349D02*
X92713000Y-62998349D01*
X98805000Y-61078349D02*
X96040000Y-61078349D01*
X96964000Y-63198349D02*
X93036000Y-63198349D01*
X93960000Y-62358349D02*
X91981000Y-62358349D01*
X93960000Y-61878349D02*
X91608000Y-61878349D01*
X98757000Y-61198349D02*
X96040000Y-61198349D01*
X98156000Y-62198349D02*
X96040000Y-62198349D01*
X93960000Y-60678349D02*
X91064000Y-60678349D01*
X99074000Y-59837349D02*
X90926000Y-59837349D01*
X99002000Y-60398349D02*
X96040000Y-60398349D01*
X98444000Y-61798349D02*
X96040000Y-61798349D01*
X96453000Y-63438349D02*
X93547000Y-63438349D01*
X98418000Y-61838349D02*
X96040000Y-61838349D01*
X99065000Y-59957349D02*
X90935000Y-59957349D01*
X98392000Y-61878349D02*
X96040000Y-61878349D01*
X93960000Y-61478349D02*
X91373000Y-61478349D01*
X97228000Y-63038349D02*
X92772000Y-63038349D01*
X93960000Y-61238349D02*
X91260000Y-61238349D01*
X98877000Y-60878349D02*
X96040000Y-60878349D01*
X98250000Y-62078349D02*
X96040000Y-62078349D01*
X93960000Y-60918349D02*
X91137000Y-60918349D01*
X93960000Y-62318349D02*
X91945000Y-62318349D01*
X98850000Y-60958349D02*
X96040000Y-60958349D01*
X98338000Y-61958349D02*
X96040000Y-61958349D01*
X99061000Y-59997349D02*
X90939000Y-59997349D01*
X97826000Y-62558349D02*
X92174000Y-62558349D01*
X93960000Y-61158349D02*
X91226000Y-61158349D01*
X98365000Y-61918349D02*
X96040000Y-61918349D01*
X93960000Y-61718349D02*
X91507000Y-61718349D01*
X96552000Y-63398349D02*
X93448000Y-63398349D01*
X93960000Y-61078349D02*
X91195000Y-61078349D01*
X98985000Y-60478349D02*
X96040000Y-60478349D01*
X96731000Y-63318349D02*
X93269000Y-63318349D01*
X93960000Y-60558349D02*
X91033000Y-60558349D01*
X99042000Y-60157349D02*
X90958000Y-60157349D01*
X98740000Y-61238349D02*
X96040000Y-61238349D01*
X97166000Y-63078349D02*
X92834000Y-63078349D01*
X93960000Y-62078349D02*
X91750000Y-62078349D01*
X97651000Y-62718349D02*
X92349000Y-62718349D01*
X98835000Y-60998349D02*
X96040000Y-60998349D01*
X98914000Y-60758349D02*
X96040000Y-60758349D01*
X93960000Y-61758349D02*
X91531000Y-61758349D01*
X98220000Y-62118349D02*
X96040000Y-62118349D01*
X98967000Y-60558349D02*
X96040000Y-60558349D01*
X93960000Y-61118349D02*
X91210000Y-61118349D01*
X99079000Y-59717349D02*
X90921000Y-59717349D01*
X98562000Y-61598349D02*
X96040000Y-61598349D01*
X98902000Y-60798349D02*
X96040000Y-60798349D01*
X93960000Y-61358349D02*
X91314000Y-61358349D01*
X93960000Y-62158349D02*
X91811000Y-62158349D01*
X99080000Y-59677349D02*
X90920000Y-59677349D01*
X96813000Y-63278349D02*
X93187000Y-63278349D01*
X97315000Y-55187651D02*
X97315000Y-55987651D01*
X93960000Y-62118349D02*
X91780000Y-62118349D01*
X93960000Y-60878349D02*
X91123000Y-60878349D01*
X98055000Y-62318349D02*
X96040000Y-62318349D01*
X93960000Y-62238349D02*
X91876000Y-62238349D01*
X97741000Y-62638349D02*
X92259000Y-62638349D01*
X93960000Y-60318349D02*
X90983000Y-60318349D01*
X93960000Y-61198349D02*
X91243000Y-61198349D01*
X97907000Y-62478349D02*
X92093000Y-62478349D01*
X93960000Y-60598349D02*
X91043000Y-60598349D01*
X93960000Y-60998349D02*
X91165000Y-60998349D01*
X93960000Y-60478349D02*
X91015000Y-60478349D01*
X98704000Y-61318349D02*
X96040000Y-61318349D01*
X95948000Y-63598349D02*
X94052000Y-63598349D01*
X97345000Y-62958349D02*
X92655000Y-62958349D01*
X97556000Y-62798349D02*
X92444000Y-62798349D01*
X98722000Y-61278349D02*
X96040000Y-61278349D01*
X99068000Y-59917349D02*
X90932000Y-59917349D01*
X98976000Y-60518349D02*
X96040000Y-60518349D01*
X93960000Y-60718349D02*
X91075000Y-60718349D01*
X97102000Y-63118349D02*
X92898000Y-63118349D01*
X98517000Y-61678349D02*
X96040000Y-61678349D01*
X99057000Y-60037349D02*
X90943000Y-60037349D01*
X95533000Y-63678349D02*
X94467000Y-63678349D01*
X99030000Y-60237349D02*
X90970000Y-60237349D01*
X97505000Y-62838349D02*
X92495000Y-62838349D01*
X98189000Y-62158349D02*
X96040000Y-62158349D01*
X98925000Y-60718349D02*
X96040000Y-60718349D01*
X98309000Y-61998349D02*
X96040000Y-61998349D01*
X93960000Y-60358349D02*
X90990000Y-60358349D01*
X93960000Y-61518349D02*
X91394000Y-61518349D01*
X98493000Y-61718349D02*
X96040000Y-61718349D01*
X98821000Y-61038349D02*
X96040000Y-61038349D01*
X93960000Y-61798349D02*
X91556000Y-61798349D01*
X98469000Y-61758349D02*
X96040000Y-61758349D01*
X98994000Y-60438349D02*
X96040000Y-60438349D01*
X93960000Y-61678349D02*
X91483000Y-61678349D01*
X98124000Y-62238349D02*
X96040000Y-62238349D01*
X93960000Y-60398349D02*
X90998000Y-60398349D01*
X93960000Y-60958349D02*
X91150000Y-60958349D01*
X93960000Y-60798349D02*
X91098000Y-60798349D01*
X93960000Y-62038349D02*
X91720000Y-62038349D01*
X97604000Y-62758349D02*
X92396000Y-62758349D01*
X98280000Y-62038349D02*
X96040000Y-62038349D01*
X98774000Y-61158349D02*
X96040000Y-61158349D01*
X96346000Y-63478349D02*
X93654000Y-63478349D01*
X99077000Y-59757349D02*
X90923000Y-59757349D01*
X97945000Y-62438349D02*
X92055000Y-62438349D01*
X98019000Y-62358349D02*
X96040000Y-62358349D01*
X99037000Y-60197349D02*
X90963000Y-60197349D01*
X97400000Y-62918349D02*
X92600000Y-62918349D01*
X93960000Y-61838349D02*
X91582000Y-61838349D01*
X93960000Y-61278349D02*
X91278000Y-61278349D01*
X97784000Y-62598349D02*
X92216000Y-62598349D01*
X99076000Y-59797349D02*
X90924000Y-59797349D01*
X93960000Y-62198349D02*
X91844000Y-62198349D01*
X98606000Y-61518349D02*
X96040000Y-61518349D01*
X93960000Y-61438349D02*
X91353000Y-61438349D01*
X98863000Y-60918349D02*
X96040000Y-60918349D01*
X99120000Y-59597349D02*
G75*
G03*
X99120000Y-59597349I-4120000J0D01*
G01*
X146500000Y-60135000D02*
X146500000Y-49285000D01*
X136300000Y-59635000D02*
X141700000Y-59635000D01*
X134600000Y-60135000D02*
X136500000Y-60135000D01*
X141700000Y-59635000D02*
X141400000Y-60135000D01*
X141400000Y-60135000D02*
X146500000Y-60135000D01*
X136550000Y-60135000D02*
X136300000Y-59635000D01*
X146500000Y-49285000D02*
X133900000Y-49285000D01*
X133900000Y-59635000D02*
X134850000Y-59635000D01*
X134850000Y-59635000D02*
X134600000Y-60135000D01*
X133900000Y-49285000D02*
X133900000Y-59635000D01*
X136500000Y-60135000D02*
X136550000Y-60135000D01*
X108811252Y-60710000D02*
X107388748Y-60710000D01*
X108811252Y-58890000D02*
X107388748Y-58890000D01*
X90200000Y-54100000D02*
X88200000Y-54100000D01*
X90200000Y-54100000D02*
X90200000Y-57950000D01*
X88200000Y-54100000D02*
X88200000Y-57950000D01*
X90200000Y-63100000D02*
X90200000Y-59250000D01*
X88200000Y-63100000D02*
X88200000Y-59250000D01*
X88200000Y-63100000D02*
X90200000Y-63100000D01*
D10*
X77750000Y-56800000D02*
X77750000Y-63200000D01*
X87050000Y-56800000D02*
X87050000Y-63200000D01*
X77750000Y-56800000D02*
X87050000Y-56800000D01*
X77750000Y-63200000D02*
X87050000Y-63200000D01*
D12*
X130485000Y-49235000D02*
X130485000Y-47765000D01*
X130485000Y-47765000D02*
X128200000Y-47765000D01*
X128200000Y-49235000D02*
X130485000Y-49235000D01*
X104937258Y-58022500D02*
X104462742Y-58022500D01*
X104937258Y-56977500D02*
X104462742Y-56977500D01*
X125227258Y-48017500D02*
X124752742Y-48017500D01*
X125227258Y-49062500D02*
X124752742Y-49062500D01*
X108859420Y-56110000D02*
X109140580Y-56110000D01*
X108859420Y-55090000D02*
X109140580Y-55090000D01*
X76300000Y-62870000D02*
X76300000Y-61920000D01*
X77220000Y-61920000D02*
X77220000Y-58080000D01*
X75380000Y-58080000D02*
X75380000Y-61920000D01*
X76300000Y-57130000D02*
X76300000Y-58080000D01*
X75380000Y-61920000D02*
X77220000Y-61920000D01*
X77220000Y-58080000D02*
X75380000Y-58080000D01*
X66400000Y-50065000D02*
X66700000Y-49565000D01*
X71800000Y-50065000D02*
X66400000Y-50065000D01*
X73250000Y-50065000D02*
X73500000Y-49565000D01*
X74200000Y-60415000D02*
X74200000Y-50065000D01*
X66700000Y-49565000D02*
X61600000Y-49565000D01*
X73500000Y-49565000D02*
X71600000Y-49565000D01*
X71600000Y-49565000D02*
X71550000Y-49565000D01*
X74200000Y-50065000D02*
X73250000Y-50065000D01*
X61600000Y-49565000D02*
X61600000Y-60415000D01*
X61600000Y-60415000D02*
X74200000Y-60415000D01*
X71550000Y-49565000D02*
X71800000Y-50065000D01*
X105568000Y-50417349D02*
X97432000Y-50417349D01*
X103900000Y-53418349D02*
X99100000Y-53418349D01*
X103464000Y-53698349D02*
X99536000Y-53698349D01*
X100460000Y-51258349D02*
X97586000Y-51258349D01*
X100460000Y-52578349D02*
X98250000Y-52578349D01*
X105577000Y-50257349D02*
X97423000Y-50257349D01*
X105557000Y-50537349D02*
X97443000Y-50537349D01*
X100460000Y-51938349D02*
X97853000Y-51938349D01*
X105476000Y-51018349D02*
X102540000Y-51018349D01*
X100460000Y-51818349D02*
X97796000Y-51818349D01*
X105425000Y-51218349D02*
X102540000Y-51218349D01*
X105580000Y-50177349D02*
X97420000Y-50177349D01*
X105389000Y-51338349D02*
X102540000Y-51338349D01*
X104624000Y-52738349D02*
X102540000Y-52738349D01*
X100460000Y-52218349D02*
X98007000Y-52218349D01*
X105186000Y-51858349D02*
X102540000Y-51858349D01*
X105485000Y-50978349D02*
X102540000Y-50978349D01*
X105542000Y-50657349D02*
X97458000Y-50657349D01*
X100460000Y-52538349D02*
X98220000Y-52538349D01*
X104005000Y-53338349D02*
X98995000Y-53338349D01*
X105222000Y-51778349D02*
X102540000Y-51778349D01*
X100460000Y-52138349D02*
X97960000Y-52138349D01*
X103815000Y-45687651D02*
X103815000Y-46487651D01*
X105274000Y-51658349D02*
X102540000Y-51658349D01*
X100460000Y-50858349D02*
X97490000Y-50858349D01*
X104284000Y-53098349D02*
X98716000Y-53098349D01*
X100460000Y-51978349D02*
X97873000Y-51978349D01*
X104519000Y-52858349D02*
X102540000Y-52858349D01*
X105377000Y-51378349D02*
X102540000Y-51378349D01*
X103666000Y-53578349D02*
X99334000Y-53578349D01*
X104483000Y-52898349D02*
X98517000Y-52898349D01*
X100460000Y-52698349D02*
X98344000Y-52698349D01*
X105040000Y-52138349D02*
X102540000Y-52138349D01*
X100460000Y-52418349D02*
X98135000Y-52418349D01*
X100460000Y-51658349D02*
X97726000Y-51658349D01*
X104689000Y-52658349D02*
X102540000Y-52658349D01*
X105494000Y-50938349D02*
X102540000Y-50938349D01*
X100460000Y-51418349D02*
X97637000Y-51418349D01*
X100460000Y-51298349D02*
X97598000Y-51298349D01*
X100460000Y-52178349D02*
X97983000Y-52178349D01*
X103787000Y-53498349D02*
X99213000Y-53498349D01*
X105402000Y-51298349D02*
X102540000Y-51298349D01*
X100460000Y-52658349D02*
X98311000Y-52658349D01*
X100460000Y-52858349D02*
X98481000Y-52858349D01*
X104555000Y-52818349D02*
X102540000Y-52818349D01*
X105436000Y-51178349D02*
X102540000Y-51178349D01*
X100460000Y-51898349D02*
X97834000Y-51898349D01*
X105457000Y-51098349D02*
X102540000Y-51098349D01*
X102953000Y-53938349D02*
X100047000Y-53938349D01*
X100460000Y-52058349D02*
X97916000Y-52058349D01*
X105580000Y-50097349D02*
X97420000Y-50097349D01*
X100460000Y-51858349D02*
X97814000Y-51858349D01*
X102729000Y-54018349D02*
X100271000Y-54018349D01*
X105467000Y-51058349D02*
X102540000Y-51058349D01*
X105524000Y-50777349D02*
X97476000Y-50777349D01*
X100460000Y-50818349D02*
X97483000Y-50818349D01*
X103534000Y-53658349D02*
X99466000Y-53658349D01*
X104326000Y-53058349D02*
X98674000Y-53058349D01*
X100460000Y-52618349D02*
X98280000Y-52618349D01*
X104407000Y-52978349D02*
X98593000Y-52978349D01*
X105290000Y-51618349D02*
X102540000Y-51618349D01*
X103390000Y-53738349D02*
X99610000Y-53738349D01*
X104993000Y-52218349D02*
X102540000Y-52218349D01*
X105561000Y-50497349D02*
X97439000Y-50497349D01*
X100460000Y-51738349D02*
X97760000Y-51738349D01*
X100460000Y-50898349D02*
X97498000Y-50898349D01*
X105552000Y-50577349D02*
X97448000Y-50577349D01*
X103313000Y-53778349D02*
X99687000Y-53778349D01*
X105580000Y-50137349D02*
X97420000Y-50137349D01*
X102846000Y-53978349D02*
X100154000Y-53978349D01*
X100460000Y-50978349D02*
X97515000Y-50978349D01*
X104780000Y-52538349D02*
X102540000Y-52538349D01*
X100460000Y-51578349D02*
X97695000Y-51578349D01*
X105414000Y-51258349D02*
X102540000Y-51258349D01*
X104215000Y-46087651D02*
X103415000Y-46087651D01*
X105321000Y-51538349D02*
X102540000Y-51538349D01*
X105363000Y-51418349D02*
X102540000Y-51418349D01*
X100460000Y-52738349D02*
X98376000Y-52738349D01*
X104197000Y-53178349D02*
X98803000Y-53178349D01*
X105447000Y-51138349D02*
X102540000Y-51138349D01*
X103728000Y-53538349D02*
X99272000Y-53538349D01*
X100460000Y-52498349D02*
X98191000Y-52498349D01*
X105537000Y-50697349D02*
X97463000Y-50697349D01*
X100460000Y-52258349D02*
X98031000Y-52258349D01*
X104720000Y-52618349D02*
X102540000Y-52618349D01*
X105335000Y-51498349D02*
X102540000Y-51498349D01*
X100460000Y-51458349D02*
X97650000Y-51458349D01*
X100460000Y-51058349D02*
X97533000Y-51058349D01*
X100460000Y-51698349D02*
X97743000Y-51698349D01*
X102598000Y-54058349D02*
X100402000Y-54058349D01*
X105510000Y-50858349D02*
X102540000Y-50858349D01*
X100460000Y-52818349D02*
X98445000Y-52818349D01*
X105548000Y-50617349D02*
X97452000Y-50617349D01*
X103602000Y-53618349D02*
X99398000Y-53618349D01*
X105257000Y-51698349D02*
X102540000Y-51698349D01*
X100460000Y-51138349D02*
X97553000Y-51138349D01*
X105576000Y-50297349D02*
X97424000Y-50297349D01*
X100460000Y-50938349D02*
X97506000Y-50938349D01*
X102033000Y-54178349D02*
X100967000Y-54178349D01*
X100460000Y-51178349D02*
X97564000Y-51178349D01*
X100460000Y-51098349D02*
X97543000Y-51098349D01*
X104944000Y-52298349D02*
X102540000Y-52298349D01*
X105502000Y-50898349D02*
X102540000Y-50898349D01*
X105166000Y-51898349D02*
X102540000Y-51898349D01*
X105579000Y-50217349D02*
X97421000Y-50217349D01*
X104056000Y-53298349D02*
X98944000Y-53298349D01*
X105530000Y-50737349D02*
X97470000Y-50737349D01*
X103954000Y-53378349D02*
X99046000Y-53378349D01*
X105305000Y-51578349D02*
X102540000Y-51578349D01*
X105106000Y-52018349D02*
X102540000Y-52018349D01*
X100460000Y-51778349D02*
X97778000Y-51778349D01*
X104590000Y-52778349D02*
X102540000Y-52778349D01*
X103231000Y-53818349D02*
X99769000Y-53818349D01*
X100460000Y-51618349D02*
X97710000Y-51618349D01*
X103145000Y-53858349D02*
X99855000Y-53858349D01*
X105350000Y-51458349D02*
X102540000Y-51458349D01*
X105240000Y-51738349D02*
X102540000Y-51738349D01*
X105204000Y-51818349D02*
X102540000Y-51818349D01*
X105062000Y-52098349D02*
X102540000Y-52098349D01*
X105017000Y-52178349D02*
X102540000Y-52178349D01*
X104969000Y-52258349D02*
X102540000Y-52258349D01*
X100460000Y-52378349D02*
X98108000Y-52378349D01*
X105147000Y-51938349D02*
X102540000Y-51938349D01*
X102268000Y-54138349D02*
X100732000Y-54138349D01*
X105574000Y-50337349D02*
X97426000Y-50337349D01*
X104241000Y-53138349D02*
X98759000Y-53138349D01*
X103052000Y-53898349D02*
X99948000Y-53898349D01*
X100460000Y-51498349D02*
X97665000Y-51498349D01*
X104104000Y-53258349D02*
X98896000Y-53258349D01*
X100460000Y-51378349D02*
X97623000Y-51378349D01*
X104367000Y-53018349D02*
X98633000Y-53018349D01*
X104838000Y-52458349D02*
X102540000Y-52458349D01*
X104750000Y-52578349D02*
X102540000Y-52578349D01*
X100460000Y-52458349D02*
X98162000Y-52458349D01*
X104865000Y-52418349D02*
X102540000Y-52418349D01*
X104892000Y-52378349D02*
X102540000Y-52378349D01*
X103845000Y-53458349D02*
X99155000Y-53458349D01*
X104151000Y-53218349D02*
X98849000Y-53218349D01*
X100460000Y-51338349D02*
X97611000Y-51338349D01*
X100460000Y-52338349D02*
X98082000Y-52338349D01*
X104809000Y-52498349D02*
X102540000Y-52498349D01*
X105084000Y-52058349D02*
X102540000Y-52058349D01*
X102448000Y-54098349D02*
X100552000Y-54098349D01*
X100460000Y-52778349D02*
X98410000Y-52778349D01*
X100460000Y-51018349D02*
X97524000Y-51018349D01*
X105127000Y-51978349D02*
X102540000Y-51978349D01*
X100460000Y-52298349D02*
X98056000Y-52298349D01*
X100460000Y-51218349D02*
X97575000Y-51218349D01*
X100460000Y-51538349D02*
X97679000Y-51538349D01*
X104445000Y-52938349D02*
X98555000Y-52938349D01*
X105565000Y-50457349D02*
X97435000Y-50457349D01*
X104656000Y-52698349D02*
X102540000Y-52698349D01*
X104918000Y-52338349D02*
X102540000Y-52338349D01*
X100460000Y-52018349D02*
X97894000Y-52018349D01*
X100460000Y-52098349D02*
X97938000Y-52098349D01*
X105571000Y-50377349D02*
X97429000Y-50377349D01*
X105517000Y-50818349D02*
X102540000Y-50818349D01*
X105620000Y-50097349D02*
G75*
G03*
X105620000Y-50097349I-4120000J0D01*
G01*
X96300000Y-50600000D02*
X96300000Y-49400000D01*
X90700000Y-49400000D02*
X90700000Y-50600000D01*
X108662742Y-56977500D02*
X109137258Y-56977500D01*
X108662742Y-58022500D02*
X109137258Y-58022500D01*
D10*
X112529698Y-54175000D02*
X112529698Y-54030000D01*
X108379698Y-54175000D02*
X108379698Y-54030000D01*
X108379698Y-49075000D02*
X106979698Y-49075000D01*
X108379698Y-49025000D02*
X112529698Y-49025000D01*
X108379698Y-54175000D02*
X112529698Y-54175000D01*
X112529698Y-49025000D02*
X112529698Y-49170000D01*
X108379698Y-49025000D02*
X108379698Y-49075000D01*
D12*
X128560000Y-55648621D02*
X126553000Y-55648621D01*
X131737000Y-57008621D02*
X127463000Y-57008621D01*
X130659000Y-57648621D02*
X128541000Y-57648621D01*
X128560000Y-55448621D02*
X126490000Y-55448621D01*
X132084000Y-56648621D02*
X130640000Y-56648621D01*
X131595000Y-57128621D02*
X127605000Y-57128621D01*
X130765000Y-57608621D02*
X128435000Y-57608621D01*
X132016000Y-56728621D02*
X130640000Y-56728621D01*
X132366000Y-56248621D02*
X130640000Y-56248621D01*
X132828000Y-54687621D02*
X126372000Y-54687621D01*
X132775000Y-55167621D02*
X130640000Y-55167621D01*
X130233000Y-57768621D02*
X128967000Y-57768621D01*
X131032000Y-57488621D02*
X128168000Y-57488621D01*
X132647000Y-55648621D02*
X130640000Y-55648621D01*
X131865000Y-56888621D02*
X127335000Y-56888621D01*
X128560000Y-55087621D02*
X126411000Y-55087621D01*
X131782000Y-56968621D02*
X127418000Y-56968621D01*
X128560000Y-55488621D02*
X126502000Y-55488621D01*
X128560000Y-56728621D02*
X127184000Y-56728621D01*
X131943000Y-56808621D02*
X130640000Y-56808621D01*
X128560000Y-55568621D02*
X126526000Y-55568621D01*
X132767000Y-55207621D02*
X130640000Y-55207621D01*
X128560000Y-56848621D02*
X127295000Y-56848621D01*
X128560000Y-55928621D02*
X126666000Y-55928621D01*
X132710000Y-55448621D02*
X130640000Y-55448621D01*
X132178000Y-56528621D02*
X130640000Y-56528621D01*
X128560000Y-56768621D02*
X127220000Y-56768621D01*
X132496000Y-56008621D02*
X130640000Y-56008621D01*
X132148000Y-56568621D02*
X130640000Y-56568621D01*
X132818000Y-54847621D02*
X130640000Y-54847621D01*
X132116000Y-56608621D02*
X130640000Y-56608621D01*
X132264000Y-56408621D02*
X130640000Y-56408621D01*
X132741000Y-55328621D02*
X130640000Y-55328621D01*
X128560000Y-56488621D02*
X126993000Y-56488621D01*
X131181000Y-57408621D02*
X128019000Y-57408621D01*
X128560000Y-55408621D02*
X126479000Y-55408621D01*
X128560000Y-56128621D02*
X126766000Y-56128621D01*
X128560000Y-56088621D02*
X126744000Y-56088621D01*
X132633000Y-55688621D02*
X130640000Y-55688621D01*
X131490000Y-57208621D02*
X127710000Y-57208621D01*
X128560000Y-56208621D02*
X126810000Y-56208621D01*
X128560000Y-55808621D02*
X126614000Y-55808621D01*
X131692000Y-57048621D02*
X127508000Y-57048621D01*
X131644000Y-57088621D02*
X127556000Y-57088621D01*
X128560000Y-56328621D02*
X126884000Y-56328621D01*
X131754000Y-51382380D02*
X131124000Y-51382380D01*
X128560000Y-56288621D02*
X126858000Y-56288621D01*
X128560000Y-55247621D02*
X126441000Y-55247621D01*
X128560000Y-56568621D02*
X127052000Y-56568621D01*
X128560000Y-56168621D02*
X126788000Y-56168621D01*
X131250000Y-57368621D02*
X127950000Y-57368621D01*
X132412000Y-56168621D02*
X130640000Y-56168621D01*
X132824000Y-54767621D02*
X126376000Y-54767621D01*
X132342000Y-56288621D02*
X130640000Y-56288621D01*
X132390000Y-56208621D02*
X130640000Y-56208621D01*
X132674000Y-55568621D02*
X130640000Y-55568621D01*
X132830000Y-54647621D02*
X126370000Y-54647621D01*
X130402000Y-57728621D02*
X128798000Y-57728621D01*
X128560000Y-55688621D02*
X126567000Y-55688621D01*
X128560000Y-56008621D02*
X126704000Y-56008621D01*
X128560000Y-56688621D02*
X127150000Y-56688621D01*
X128560000Y-56528621D02*
X127022000Y-56528621D01*
X131434000Y-57248621D02*
X127766000Y-57248621D01*
X128560000Y-54807621D02*
X126378000Y-54807621D01*
X128560000Y-54927621D02*
X126389000Y-54927621D01*
X128560000Y-55608621D02*
X126539000Y-55608621D01*
X131314000Y-57328621D02*
X127886000Y-57328621D01*
X128560000Y-55888621D02*
X126648000Y-55888621D01*
X128560000Y-55047621D02*
X126405000Y-55047621D01*
X132795000Y-55047621D02*
X130640000Y-55047621D01*
X131376000Y-57288621D02*
X127824000Y-57288621D01*
X128560000Y-56368621D02*
X126910000Y-56368621D01*
X132050000Y-56688621D02*
X130640000Y-56688621D01*
X128560000Y-55207621D02*
X126433000Y-55207621D01*
X132750000Y-55288621D02*
X130640000Y-55288621D01*
X131109000Y-57448621D02*
X128091000Y-57448621D01*
X132789000Y-55087621D02*
X130640000Y-55087621D01*
X128560000Y-55968621D02*
X126684000Y-55968621D01*
X132698000Y-55488621D02*
X130640000Y-55488621D01*
X128560000Y-55288621D02*
X126450000Y-55288621D01*
X131980000Y-56768621D02*
X130640000Y-56768621D01*
X132759000Y-55247621D02*
X130640000Y-55247621D01*
X132570000Y-55848621D02*
X130640000Y-55848621D01*
X132586000Y-55808621D02*
X130640000Y-55808621D01*
X130540000Y-57688621D02*
X128660000Y-57688621D01*
X131824000Y-56928621D02*
X127376000Y-56928621D01*
X128560000Y-54847621D02*
X126382000Y-54847621D01*
X132534000Y-55928621D02*
X130640000Y-55928621D01*
X128560000Y-56408621D02*
X126936000Y-56408621D01*
X128560000Y-55328621D02*
X126459000Y-55328621D01*
X132602000Y-55768621D02*
X130640000Y-55768621D01*
X132476000Y-56048621D02*
X130640000Y-56048621D01*
X128560000Y-54887621D02*
X126385000Y-54887621D01*
X132806000Y-54967621D02*
X130640000Y-54967621D01*
X132207000Y-56488621D02*
X130640000Y-56488621D01*
X132434000Y-56128621D02*
X130640000Y-56128621D01*
X128560000Y-55848621D02*
X126630000Y-55848621D01*
X131439000Y-51067380D02*
X131439000Y-51697380D01*
X132236000Y-56448621D02*
X130640000Y-56448621D01*
X128560000Y-55728621D02*
X126582000Y-55728621D01*
X132801000Y-55007621D02*
X130640000Y-55007621D01*
X131544000Y-57168621D02*
X127656000Y-57168621D01*
X128560000Y-56448621D02*
X126964000Y-56448621D01*
X128560000Y-55528621D02*
X126514000Y-55528621D01*
X128560000Y-56648621D02*
X127116000Y-56648621D01*
X132552000Y-55888621D02*
X130640000Y-55888621D01*
X128560000Y-56048621D02*
X126724000Y-56048621D01*
X130862000Y-57568621D02*
X128338000Y-57568621D01*
X132290000Y-56368621D02*
X130640000Y-56368621D01*
X132827000Y-54727621D02*
X126373000Y-54727621D01*
X132782000Y-55127621D02*
X130640000Y-55127621D01*
X132686000Y-55528621D02*
X130640000Y-55528621D01*
X128560000Y-55167621D02*
X126425000Y-55167621D01*
X132815000Y-54887621D02*
X130640000Y-54887621D01*
X132316000Y-56328621D02*
X130640000Y-56328621D01*
X130950000Y-57528621D02*
X128250000Y-57528621D01*
X130002000Y-57808621D02*
X129198000Y-57808621D01*
X132731000Y-55368621D02*
X130640000Y-55368621D01*
X132661000Y-55608621D02*
X130640000Y-55608621D01*
X128560000Y-56808621D02*
X127257000Y-56808621D01*
X131905000Y-56848621D02*
X130640000Y-56848621D01*
X132811000Y-54927621D02*
X130640000Y-54927621D01*
X132456000Y-56088621D02*
X130640000Y-56088621D01*
X132830000Y-54607621D02*
X126370000Y-54607621D01*
X128560000Y-56248621D02*
X126834000Y-56248621D01*
X132721000Y-55408621D02*
X130640000Y-55408621D01*
X128560000Y-55127621D02*
X126418000Y-55127621D01*
X128560000Y-55768621D02*
X126598000Y-55768621D01*
X132618000Y-55728621D02*
X130640000Y-55728621D01*
X132830000Y-54567621D02*
X126370000Y-54567621D01*
X128560000Y-56608621D02*
X127084000Y-56608621D01*
X132822000Y-54807621D02*
X130640000Y-54807621D01*
X128560000Y-54967621D02*
X126394000Y-54967621D01*
X128560000Y-55368621D02*
X126469000Y-55368621D01*
X132516000Y-55968621D02*
X130640000Y-55968621D01*
X128560000Y-55007621D02*
X126399000Y-55007621D01*
X132870000Y-54567621D02*
G75*
G03*
X132870000Y-54567621I-3270000J0D01*
G01*
%LPC*%
D13*
X112500000Y-57600000D03*
X112500000Y-61600000D03*
D14*
X115975000Y-51900000D03*
X119825000Y-51900000D03*
D13*
X123900000Y-56382379D03*
X123900000Y-52382379D03*
D15*
X76300000Y-53810000D03*
D16*
X76300000Y-46190000D03*
D17*
X95000000Y-57847349D03*
D18*
X95000000Y-61347349D03*
D19*
X140200000Y-51935000D03*
D20*
X140200000Y-56935000D03*
D21*
X109575000Y-59800000D03*
X106625000Y-59800000D03*
D22*
X89200000Y-54900000D03*
X89200000Y-57700000D03*
X89200000Y-62300000D03*
X89200000Y-59500000D03*
D18*
X79900000Y-59250000D03*
X84900000Y-60750000D03*
D23*
X129787500Y-48500000D03*
X128212500Y-48500000D03*
D24*
X105525000Y-57500000D03*
X103875000Y-57500000D03*
X125815000Y-48540000D03*
X124165000Y-48540000D03*
D25*
X108225000Y-55600000D03*
X109775000Y-55600000D03*
D15*
X76300000Y-56190000D03*
D16*
X76300000Y-63810000D03*
D19*
X67900000Y-57765000D03*
D20*
X67900000Y-52765000D03*
D17*
X101500000Y-48347349D03*
D18*
X101500000Y-51847349D03*
D26*
X93500000Y-51925000D03*
X93500000Y-48075000D03*
D27*
X108075000Y-57500000D03*
X109725000Y-57500000D03*
D28*
X108004698Y-49695000D03*
X108004698Y-50965000D03*
X108004698Y-53505000D03*
X112904698Y-53505000D03*
X112904698Y-52235000D03*
X112904698Y-50965000D03*
X112904698Y-49695000D03*
D17*
X129600000Y-53317621D03*
D18*
X129600000Y-55817621D03*
M02*
