G04 #@! TF.GenerationSoftware,KiCad,Pcbnew,6.0.0-rc1-unknown-c40e921cb3~144~ubuntu20.04.1*
G04 #@! TF.CreationDate,2021-11-22T05:53:21+02:00*
G04 #@! TF.ProjectId,PSU-NONISOLATED,5053552d-4e4f-44e4-9953-4f4c41544544,rev?*
G04 #@! TF.SameCoordinates,Original*
G04 #@! TF.FileFunction,Copper,L1,Top*
G04 #@! TF.FilePolarity,Positive*
%FSLAX46Y46*%
G04 Gerber Fmt 4.6, Leading zero omitted, Abs format (unit mm)*
G04 Created by KiCad (PCBNEW 6.0.0-rc1-unknown-c40e921cb3~144~ubuntu20.04.1) date 2021-11-22 05:53:21*
%MOMM*%
%LPD*%
G01*
G04 APERTURE LIST*
G04 Aperture macros list*
%AMRoundRect*
0 Rectangle with rounded corners*
0 $1 Rounding radius*
0 $2 $3 $4 $5 $6 $7 $8 $9 X,Y pos of 4 corners*
0 Add a 4 corners polygon primitive as box body*
4,1,4,$2,$3,$4,$5,$6,$7,$8,$9,$2,$3,0*
0 Add four circle primitives for the rounded corners*
1,1,$1+$1,$2,$3*
1,1,$1+$1,$4,$5*
1,1,$1+$1,$6,$7*
1,1,$1+$1,$8,$9*
0 Add four rect primitives between the rounded corners*
20,1,$1+$1,$2,$3,$4,$5,0*
20,1,$1+$1,$4,$5,$6,$7,0*
20,1,$1+$1,$6,$7,$8,$9,0*
20,1,$1+$1,$8,$9,$2,$3,0*%
G04 Aperture macros list end*
G04 #@! TA.AperFunction,SMDPad,CuDef*
%ADD10R,1.800000X2.500000*%
G04 #@! TD*
G04 #@! TA.AperFunction,SMDPad,CuDef*
%ADD11R,2.150000X5.500000*%
G04 #@! TD*
G04 #@! TA.AperFunction,ComponentPad*
%ADD12C,1.400000*%
G04 #@! TD*
G04 #@! TA.AperFunction,ComponentPad*
%ADD13O,1.400000X1.400000*%
G04 #@! TD*
G04 #@! TA.AperFunction,ComponentPad*
%ADD14R,1.600000X1.600000*%
G04 #@! TD*
G04 #@! TA.AperFunction,ComponentPad*
%ADD15C,1.600000*%
G04 #@! TD*
G04 #@! TA.AperFunction,ComponentPad*
%ADD16R,3.960000X1.980000*%
G04 #@! TD*
G04 #@! TA.AperFunction,ComponentPad*
%ADD17O,3.960000X1.980000*%
G04 #@! TD*
G04 #@! TA.AperFunction,SMDPad,CuDef*
%ADD18RoundRect,0.250000X0.325000X0.650000X-0.325000X0.650000X-0.325000X-0.650000X0.325000X-0.650000X0*%
G04 #@! TD*
G04 #@! TA.AperFunction,SMDPad,CuDef*
%ADD19R,1.100000X1.100000*%
G04 #@! TD*
G04 #@! TA.AperFunction,SMDPad,CuDef*
%ADD20RoundRect,0.218750X0.218750X0.256250X-0.218750X0.256250X-0.218750X-0.256250X0.218750X-0.256250X0*%
G04 #@! TD*
G04 #@! TA.AperFunction,SMDPad,CuDef*
%ADD21RoundRect,0.200000X0.200000X0.275000X-0.200000X0.275000X-0.200000X-0.275000X0.200000X-0.275000X0*%
G04 #@! TD*
G04 #@! TA.AperFunction,SMDPad,CuDef*
%ADD22RoundRect,0.225000X-0.225000X-0.250000X0.225000X-0.250000X0.225000X0.250000X-0.225000X0.250000X0*%
G04 #@! TD*
G04 #@! TA.AperFunction,SMDPad,CuDef*
%ADD23R,5.500000X2.150000*%
G04 #@! TD*
G04 #@! TA.AperFunction,SMDPad,CuDef*
%ADD24RoundRect,0.200000X-0.200000X-0.275000X0.200000X-0.275000X0.200000X0.275000X-0.200000X0.275000X0*%
G04 #@! TD*
G04 #@! TA.AperFunction,SMDPad,CuDef*
%ADD25R,2.000000X0.600000*%
G04 #@! TD*
G04 #@! TA.AperFunction,ViaPad*
%ADD26C,0.800000*%
G04 #@! TD*
G04 #@! TA.AperFunction,Conductor*
%ADD27C,0.300000*%
G04 #@! TD*
G04 APERTURE END LIST*
D10*
X112500000Y-57600000D03*
X112500000Y-61600000D03*
D11*
X115975000Y-51900000D03*
X119825000Y-51900000D03*
D10*
X123900000Y-56382379D03*
X123900000Y-52382379D03*
D12*
X76300000Y-53810000D03*
D13*
X76300000Y-46190000D03*
D14*
X95000000Y-57847349D03*
D15*
X95000000Y-61347349D03*
D16*
X140200000Y-51935000D03*
D17*
X140200000Y-56935000D03*
D18*
X109575000Y-59800000D03*
X106625000Y-59800000D03*
D19*
X89200000Y-54900000D03*
X89200000Y-57700000D03*
X89200000Y-62300000D03*
X89200000Y-59500000D03*
D15*
X79900000Y-59250000D03*
X84900000Y-60750000D03*
D20*
X129787500Y-48500000D03*
X128212500Y-48500000D03*
D21*
X105525000Y-57500000D03*
X103875000Y-57500000D03*
X125815000Y-48540000D03*
X124165000Y-48540000D03*
D22*
X108225000Y-55600000D03*
X109775000Y-55600000D03*
D12*
X76300000Y-56190000D03*
D13*
X76300000Y-63810000D03*
D16*
X67900000Y-57765000D03*
D17*
X67900000Y-52765000D03*
D14*
X101500000Y-48347349D03*
D15*
X101500000Y-51847349D03*
D23*
X93500000Y-51925000D03*
X93500000Y-48075000D03*
D24*
X108075000Y-57500000D03*
X109725000Y-57500000D03*
D25*
X108004698Y-49695000D03*
X108004698Y-50965000D03*
X108004698Y-53505000D03*
X112904698Y-53505000D03*
X112904698Y-52235000D03*
X112904698Y-50965000D03*
X112904698Y-49695000D03*
D14*
X129600000Y-53317621D03*
D15*
X129600000Y-55817621D03*
D26*
X105900000Y-51600000D03*
X105600000Y-54400000D03*
X131000000Y-48500000D03*
X90800000Y-59300000D03*
X114000000Y-60900000D03*
D27*
X89200000Y-62300000D02*
X86450000Y-62300000D01*
X76300000Y-63810000D02*
X79900000Y-60210000D01*
X79900000Y-60210000D02*
X79900000Y-59250000D01*
X86450000Y-62300000D02*
X84900000Y-60750000D01*
X89200000Y-57700000D02*
X81450000Y-57700000D01*
X81450000Y-57700000D02*
X79900000Y-59250000D01*
X109575000Y-54250000D02*
X109850000Y-54250000D01*
X110200000Y-51190302D02*
X108704698Y-49695000D01*
X110200000Y-53900000D02*
X110200000Y-51190302D01*
X109850000Y-54250000D02*
X110200000Y-53900000D01*
X108225000Y-55600000D02*
X109575000Y-54250000D01*
X108704698Y-49695000D02*
X108004698Y-49695000D01*
X106000000Y-59800000D02*
X103875000Y-57675000D01*
X121200000Y-64100000D02*
X123900000Y-61400000D01*
X108300000Y-64100000D02*
X121200000Y-64100000D01*
X123900000Y-61400000D02*
X123900000Y-56382379D01*
X106625000Y-59800000D02*
X106000000Y-59800000D01*
X106625000Y-62425000D02*
X108300000Y-64100000D01*
X106625000Y-59800000D02*
X106625000Y-62425000D01*
X103875000Y-57675000D02*
X103875000Y-57500000D01*
X76300000Y-53810000D02*
X76300000Y-56190000D01*
X74475000Y-46190000D02*
X76300000Y-46190000D01*
X67900000Y-52765000D02*
X74475000Y-46190000D01*
X105525000Y-54475000D02*
X105600000Y-54400000D01*
X107369698Y-51600000D02*
X108004698Y-50965000D01*
X105900000Y-51600000D02*
X107369698Y-51600000D01*
X105525000Y-57500000D02*
X105525000Y-54475000D01*
X108075000Y-57500000D02*
X105525000Y-57500000D01*
X92052651Y-54900000D02*
X95000000Y-57847349D01*
X89200000Y-54900000D02*
X92052651Y-54900000D01*
X95000000Y-53425000D02*
X93500000Y-51925000D01*
X95000000Y-57847349D02*
X95000000Y-53425000D01*
X106005000Y-53505000D02*
X108004698Y-53505000D01*
X101500000Y-49000000D02*
X106005000Y-53505000D01*
X93500000Y-48075000D02*
X101227651Y-48075000D01*
X101500000Y-48347349D02*
X101500000Y-49000000D01*
X101227651Y-48075000D02*
X101500000Y-48347349D01*
X112500000Y-61600000D02*
X113200000Y-60900000D01*
X129787500Y-48500000D02*
X131000000Y-48500000D01*
X90600000Y-59500000D02*
X90800000Y-59300000D01*
X89200000Y-59500000D02*
X90600000Y-59500000D01*
X113200000Y-60900000D02*
X114000000Y-60900000D01*
X120307379Y-52382379D02*
X123900000Y-52382379D01*
X123900000Y-52382379D02*
X123900000Y-48805000D01*
X128664758Y-52382379D02*
X129600000Y-53317621D01*
X119825000Y-51900000D02*
X120307379Y-52382379D01*
X138817379Y-53317621D02*
X140200000Y-51935000D01*
X129600000Y-53317621D02*
X138817379Y-53317621D01*
X123900000Y-48805000D02*
X124165000Y-48540000D01*
X123900000Y-52382379D02*
X128664758Y-52382379D01*
X125815000Y-48540000D02*
X128172500Y-48540000D01*
X128172500Y-48540000D02*
X128212500Y-48500000D01*
X109575000Y-63075000D02*
X110000000Y-63500000D01*
X109725000Y-57500000D02*
X109725000Y-55650000D01*
X115000000Y-63500000D02*
X115975000Y-62525000D01*
X109700000Y-58700000D02*
X109725000Y-58675000D01*
X109725000Y-58675000D02*
X109725000Y-57500000D01*
X109575000Y-59800000D02*
X109575000Y-63075000D01*
X115640000Y-52235000D02*
X115975000Y-51900000D01*
X112904698Y-52235000D02*
X115640000Y-52235000D01*
X112500000Y-57600000D02*
X112500000Y-53909698D01*
X109725000Y-55650000D02*
X109775000Y-55600000D01*
X109700000Y-59675000D02*
X109700000Y-58700000D01*
X112500000Y-57600000D02*
X111775000Y-57600000D01*
X111775000Y-57600000D02*
X109775000Y-55600000D01*
X110000000Y-63500000D02*
X115000000Y-63500000D01*
X112500000Y-53909698D02*
X112904698Y-53505000D01*
X115975000Y-62525000D02*
X115975000Y-51900000D01*
X109575000Y-59800000D02*
X109700000Y-59675000D01*
G04 #@! TA.AperFunction,Conductor*
G36*
X117342121Y-48420002D02*
G01*
X117388614Y-48473658D01*
X117400000Y-48526000D01*
X117400000Y-58874000D01*
X117379998Y-58942121D01*
X117326342Y-58988614D01*
X117274000Y-59000000D01*
X111526000Y-59000000D01*
X111457879Y-58979998D01*
X111411386Y-58926342D01*
X111400000Y-58874000D01*
X111400000Y-48526000D01*
X111420002Y-48457879D01*
X111473658Y-48411386D01*
X111526000Y-48400000D01*
X117274000Y-48400000D01*
X117342121Y-48420002D01*
G37*
G04 #@! TD.AperFunction*
M02*
